%TF.GenerationSoftware,KiCad,Pcbnew,(5.0.0-rc2-dev-493-gd776eaca8)*%
%TF.CreationDate,2018-05-05T14:03:46-07:00*%
%TF.ProjectId,STM32_MegaBlaster,53544D33325F4D656761426C61737465,rev?*%
%TF.SameCoordinates,Original*%
%TF.FileFunction,Soldermask,Top*%
%TF.FilePolarity,Negative*%
%FSLAX46Y46*%
G04 Gerber Fmt 4.6, Leading zero omitted, Abs format (unit mm)*
G04 Created by KiCad (PCBNEW (5.0.0-rc2-dev-493-gd776eaca8)) date 05/05/18 14:03:46*
%MOMM*%
%LPD*%
G01*
G04 APERTURE LIST*
%ADD10C,0.150000*%
%ADD11R,1.500000X1.500000*%
%ADD12C,2.000000*%
%ADD13R,1.600000X1.600000*%
%ADD14C,1.600000*%
%ADD15R,2.400000X2.400000*%
%ADD16C,2.400000*%
%ADD17R,2.000000X2.000000*%
%ADD18R,3.200000X1.900000*%
%ADD19C,1.500000*%
%ADD20R,1.900000X1.100000*%
%ADD21R,1.900000X1.400000*%
%ADD22C,1.920000*%
%ADD23C,3.100000*%
%ADD24R,3.900000X3.900000*%
%ADD25O,2.400000X1.800000*%
%ADD26R,2.400000X1.800000*%
%ADD27C,3.000000*%
%ADD28O,2.000000X2.000000*%
%ADD29C,2.100000*%
%ADD30C,1.974800*%
%ADD31O,2.127200X2.127200*%
%ADD32O,2.650000X2.127200*%
%ADD33R,2.650000X2.127200*%
%ADD34R,1.035000X1.924000*%
%ADD35R,1.850000X0.850000*%
%ADD36R,0.850000X1.850000*%
%ADD37R,4.200000X2.400000*%
%ADD38R,1.900000X2.400000*%
%ADD39R,10.560000X9.340800*%
%ADD40R,1.416000X3.092400*%
%ADD41C,1.924000*%
%ADD42C,1.900000*%
%ADD43C,2.740000*%
G04 APERTURE END LIST*
D10*
X59055000Y-31115000D02*
X59055000Y-120015000D01*
X196215000Y-29845000D02*
X60325000Y-29845000D01*
X197485000Y-31115000D02*
X197485000Y-120015000D01*
X196215000Y-121285000D02*
X60325000Y-121285000D01*
X197485000Y-120015000D02*
G75*
G02X196215000Y-121285000I-1270000J0D01*
G01*
X196215000Y-29845000D02*
G75*
G02X197485000Y-31115000I0J-1270000D01*
G01*
X59055000Y-31115000D02*
G75*
G02X60325000Y-29845000I1270000J0D01*
G01*
X60325000Y-121285000D02*
G75*
G02X59055000Y-120015000I0J1270000D01*
G01*
D11*
X159766000Y-42859500D03*
X159766000Y-45659500D03*
D12*
X195262000Y-83185000D03*
X195262000Y-78185000D03*
X195262000Y-62928500D03*
X195262000Y-67928500D03*
X153480000Y-75819000D03*
X158480000Y-75819000D03*
X113030000Y-71120000D03*
X113030000Y-73620000D03*
X118745000Y-38735000D03*
X121245000Y-38735000D03*
X113665000Y-38735000D03*
X116165000Y-38735000D03*
X105410000Y-33655000D03*
X102910000Y-33655000D03*
X125730000Y-65405000D03*
X128230000Y-65405000D03*
X117475000Y-81280000D03*
X119975000Y-81280000D03*
X151765000Y-44450000D03*
X151765000Y-41950000D03*
X63500000Y-67945000D03*
X61000000Y-67945000D03*
X85090000Y-73660000D03*
X85090000Y-76160000D03*
X85090000Y-68580000D03*
X85090000Y-66080000D03*
X63500000Y-73025000D03*
X61000000Y-73025000D03*
X162966000Y-57353200D03*
X162966000Y-54853200D03*
X178765000Y-90525600D03*
X181265000Y-90525600D03*
X164135000Y-90474800D03*
X166635000Y-90474800D03*
D13*
X148590000Y-43180000D03*
D14*
X147090000Y-43180000D03*
D15*
X175260000Y-43180000D03*
D16*
X180260000Y-43180000D03*
D17*
X174625000Y-34290000D03*
D12*
X177125000Y-34290000D03*
X115570000Y-33655000D03*
X110570000Y-33655000D03*
X130810000Y-62230000D03*
X125810000Y-62230000D03*
D17*
X133096000Y-36830000D03*
D12*
X135596000Y-36830000D03*
D17*
X154305000Y-60325000D03*
D12*
X154305000Y-58325000D03*
X138430000Y-81381600D03*
X143430000Y-81381600D03*
X138430000Y-84836000D03*
X143430000Y-84836000D03*
X164135000Y-65836800D03*
X159135000Y-65836800D03*
X164135000Y-69037200D03*
X159135000Y-69037200D03*
X165596000Y-78181200D03*
X160596000Y-78181200D03*
X165596000Y-81483200D03*
X160596000Y-81483200D03*
D13*
X177521000Y-66776600D03*
D14*
X179021000Y-66776600D03*
D13*
X177521000Y-71805800D03*
D14*
X179021000Y-71805800D03*
D13*
X179045000Y-76835000D03*
D14*
X177545000Y-76835000D03*
D13*
X179045000Y-81965800D03*
D14*
X177545000Y-81965800D03*
D17*
X178968000Y-107391000D03*
D12*
X176468000Y-107391000D03*
D17*
X168961000Y-107391000D03*
D12*
X166461000Y-107391000D03*
D17*
X125095000Y-36195000D03*
D12*
X127595000Y-36195000D03*
D18*
X83200000Y-34610000D03*
X61700000Y-34610000D03*
X61700000Y-61910000D03*
X83200000Y-59710000D03*
D19*
X82200000Y-36760000D03*
D12*
X82200000Y-57760000D03*
D20*
X85000000Y-36005000D03*
X85000000Y-37205000D03*
D21*
X85000000Y-57635000D03*
X85000000Y-38505000D03*
X85000000Y-40205000D03*
X85000000Y-42635000D03*
X85000000Y-45135000D03*
X85000000Y-47635000D03*
X85000000Y-50135000D03*
X85000000Y-52635000D03*
X85000000Y-55135000D03*
D22*
X74930000Y-85725000D03*
X74930000Y-88265000D03*
X72930000Y-88265000D03*
X72930000Y-85725000D03*
D23*
X70230000Y-80995000D03*
X70230000Y-92995000D03*
D24*
X190500000Y-44450000D03*
X190500000Y-38450000D03*
X185800000Y-41450000D03*
D25*
X192318000Y-95670000D03*
X183818000Y-94670000D03*
D26*
X185318000Y-90170000D03*
D25*
X189318000Y-90170000D03*
X192318000Y-90170000D03*
D14*
X191018000Y-92470000D03*
X184018000Y-92470000D03*
D27*
X159385000Y-34925000D03*
X156385000Y-34925000D03*
X143510000Y-36830000D03*
X140510000Y-36830000D03*
X150495000Y-50165000D03*
X147495000Y-50165000D03*
X175158000Y-96723200D03*
X180158000Y-96723200D03*
X170231000Y-96723200D03*
X165231000Y-96723200D03*
D12*
X123825000Y-84455000D03*
D28*
X123825000Y-92075000D03*
D12*
X87934800Y-38658800D03*
D28*
X95554800Y-38658800D03*
D12*
X87934800Y-35356800D03*
D28*
X95554800Y-35356800D03*
D12*
X149860000Y-55245000D03*
D28*
X149860000Y-62865000D03*
D12*
X146685000Y-62865000D03*
D28*
X146685000Y-55245000D03*
D12*
X146177000Y-65786000D03*
D28*
X153797000Y-65786000D03*
D12*
X134112000Y-60325000D03*
D28*
X141732000Y-60325000D03*
D12*
X134112000Y-65278000D03*
D28*
X141732000Y-65278000D03*
D12*
X153797000Y-69088000D03*
D28*
X146177000Y-69088000D03*
D12*
X153797000Y-72390000D03*
D28*
X146177000Y-72390000D03*
D12*
X164135000Y-72390000D03*
D28*
X156515000Y-72390000D03*
D12*
X168605000Y-66446400D03*
D28*
X168605000Y-74066400D03*
D12*
X165608000Y-84836000D03*
D28*
X157988000Y-84836000D03*
D12*
X168605000Y-76758800D03*
D28*
X168605000Y-84378800D03*
D12*
X153619000Y-84836000D03*
D28*
X145999000Y-84836000D03*
D12*
X166116000Y-62941200D03*
D28*
X173736000Y-62941200D03*
D12*
X165608000Y-49377600D03*
D28*
X173228000Y-49377600D03*
D12*
X153619000Y-81381600D03*
D28*
X145999000Y-81381600D03*
D29*
X101546800Y-106786000D03*
X95046800Y-106786000D03*
X101546800Y-102286000D03*
X95046800Y-102286000D03*
X111707000Y-106786000D03*
X105207000Y-106786000D03*
X111707000Y-102286000D03*
X105207000Y-102286000D03*
X122502000Y-106786000D03*
X116002000Y-106786000D03*
X122502000Y-102286000D03*
X116002000Y-102286000D03*
X111732000Y-116235000D03*
X105232000Y-116235000D03*
X111732000Y-111735000D03*
X105232000Y-111735000D03*
D30*
X193446000Y-52628800D03*
X190245600Y-52628800D03*
X187045200Y-52628800D03*
X140335000Y-76835000D03*
X140335000Y-73634600D03*
X140335000Y-70434200D03*
D31*
X97165000Y-46939200D03*
X99705000Y-46939200D03*
D32*
X106045000Y-43078400D03*
X106045000Y-45669200D03*
X106045000Y-48209200D03*
X106045000Y-50749200D03*
X106045000Y-53289200D03*
X106045000Y-55829200D03*
X106045000Y-58369200D03*
X106045000Y-60909200D03*
X106045000Y-63449200D03*
X106045000Y-65989200D03*
X106045000Y-68529200D03*
X106045000Y-71069200D03*
X106045000Y-73609200D03*
X106045000Y-76149200D03*
X106045000Y-78689200D03*
X106045000Y-81229200D03*
X106045000Y-83769200D03*
X106045000Y-86309200D03*
X106045000Y-88849200D03*
X106045000Y-91389200D03*
X90805000Y-91389200D03*
X90805000Y-88849200D03*
X90805000Y-86309200D03*
X90805000Y-83769200D03*
X90805000Y-81229200D03*
X90805000Y-78689200D03*
X90805000Y-76149200D03*
X90805000Y-73609200D03*
X90805000Y-71069200D03*
X90805000Y-68529200D03*
X90805000Y-65989200D03*
X90805000Y-63449200D03*
X90805000Y-60909200D03*
X90805000Y-58369200D03*
X90805000Y-55829200D03*
X90805000Y-53289200D03*
X90805000Y-50749200D03*
X90805000Y-48209200D03*
X90805000Y-45669200D03*
D33*
X90805000Y-43129200D03*
D17*
X116205000Y-78740000D03*
D28*
X133985000Y-71120000D03*
X118745000Y-78740000D03*
X131445000Y-71120000D03*
X121285000Y-78740000D03*
X128905000Y-71120000D03*
X123825000Y-78740000D03*
X126365000Y-71120000D03*
X126365000Y-78740000D03*
X123825000Y-71120000D03*
X128905000Y-78740000D03*
X121285000Y-71120000D03*
X131445000Y-78740000D03*
X118745000Y-71120000D03*
X133985000Y-78740000D03*
X116205000Y-71120000D03*
D17*
X113665000Y-57150000D03*
D28*
X141605000Y-41910000D03*
X116205000Y-57150000D03*
X139065000Y-41910000D03*
X118745000Y-57150000D03*
X136525000Y-41910000D03*
X121285000Y-57150000D03*
X133985000Y-41910000D03*
X123825000Y-57150000D03*
X131445000Y-41910000D03*
X126365000Y-57150000D03*
X128905000Y-41910000D03*
X128905000Y-57150000D03*
X126365000Y-41910000D03*
X131445000Y-57150000D03*
X123825000Y-41910000D03*
X133985000Y-57150000D03*
X121285000Y-41910000D03*
X136525000Y-57150000D03*
X118745000Y-41910000D03*
X139065000Y-57150000D03*
X116205000Y-41910000D03*
X141605000Y-57150000D03*
X113665000Y-41910000D03*
D34*
X65405000Y-67790000D03*
X66675000Y-67790000D03*
X74295000Y-73180000D03*
X73025000Y-67790000D03*
X73025000Y-73180000D03*
X70485000Y-73180000D03*
X74295000Y-67790000D03*
X71755000Y-73180000D03*
X71755000Y-67790000D03*
X70485000Y-67790000D03*
X67945000Y-67790000D03*
X69215000Y-73180000D03*
X67945000Y-73180000D03*
X65405000Y-73180000D03*
X69215000Y-67790000D03*
X66675000Y-73180000D03*
D35*
X105750000Y-36490000D03*
X105750000Y-37140000D03*
X105750000Y-37790000D03*
X105750000Y-38440000D03*
X110150000Y-38440000D03*
X110150000Y-37790000D03*
X110150000Y-37140000D03*
X110150000Y-36490000D03*
D36*
X118450000Y-61935000D03*
X117800000Y-61935000D03*
X117150000Y-61935000D03*
X116500000Y-61935000D03*
X116500000Y-66335000D03*
X117150000Y-66335000D03*
X117800000Y-66335000D03*
X118450000Y-66335000D03*
D17*
X112395000Y-84455000D03*
D28*
X120015000Y-92075000D03*
X112395000Y-86995000D03*
X120015000Y-89535000D03*
X112395000Y-89535000D03*
X120015000Y-86995000D03*
X112395000Y-92075000D03*
X120015000Y-84455000D03*
D17*
X166116000Y-59944000D03*
D28*
X173736000Y-52324000D03*
X168656000Y-59944000D03*
X171196000Y-52324000D03*
X171196000Y-59944000D03*
X168656000Y-52324000D03*
X173736000Y-59944000D03*
X166116000Y-52324000D03*
D17*
X182601000Y-61696600D03*
D28*
X190221000Y-84556600D03*
X182601000Y-64236600D03*
X190221000Y-82016600D03*
X182601000Y-66776600D03*
X190221000Y-79476600D03*
X182601000Y-69316600D03*
X190221000Y-76936600D03*
X182601000Y-71856600D03*
X190221000Y-74396600D03*
X182601000Y-74396600D03*
X190221000Y-71856600D03*
X182601000Y-76936600D03*
X190221000Y-69316600D03*
X182601000Y-79476600D03*
X190221000Y-66776600D03*
X182601000Y-82016600D03*
X190221000Y-64236600D03*
X182601000Y-84556600D03*
X190221000Y-61696600D03*
D37*
X149860000Y-32410000D03*
D38*
X149860000Y-38710000D03*
X152160000Y-38710000D03*
X147560000Y-38710000D03*
D39*
X167005000Y-35407600D03*
D40*
X170408600Y-44602400D03*
X168706800Y-44602400D03*
X167005000Y-44602400D03*
X165303200Y-44602400D03*
X163601400Y-44602400D03*
D41*
X148323000Y-88980000D03*
X145783000Y-88980000D03*
X143243000Y-88980000D03*
X140703000Y-88980000D03*
D42*
X80010000Y-73660000D03*
X80010000Y-68780000D03*
D12*
X146177000Y-75819000D03*
X151177000Y-75819000D03*
D43*
X186567000Y-106637000D03*
X186567000Y-111637000D03*
X186567000Y-116637000D03*
X191567000Y-106637000D03*
X191567000Y-111637000D03*
X191567000Y-116637000D03*
M02*
