%TF.GenerationSoftware,KiCad,Pcbnew,(5.0.0-rc2-dev-493-gd776eaca8)*%
%TF.CreationDate,2018-05-18T19:49:43-07:00*%
%TF.ProjectId,STM32_MegaBlaster,53544D33325F4D656761426C61737465,rev?*%
%TF.SameCoordinates,Original*%
%TF.FileFunction,Legend,Bot*%
%TF.FilePolarity,Positive*%
%FSLAX46Y46*%
G04 Gerber Fmt 4.6, Leading zero omitted, Abs format (unit mm)*
G04 Created by KiCad (PCBNEW (5.0.0-rc2-dev-493-gd776eaca8)) date 05/18/18 19:49:43*
%MOMM*%
%LPD*%
G01*
G04 APERTURE LIST*
%ADD10C,0.150000*%
%ADD11C,0.010000*%
G04 APERTURE END LIST*
D10*
X59055000Y-31115000D02*
X59055000Y-120015000D01*
X196215000Y-29845000D02*
X60325000Y-29845000D01*
X197485000Y-31115000D02*
X197485000Y-120015000D01*
X196215000Y-121285000D02*
X60325000Y-121285000D01*
X197485000Y-120015000D02*
G75*
G02X196215000Y-121285000I-1270000J0D01*
G01*
X196215000Y-29845000D02*
G75*
G02X197485000Y-31115000I0J-1270000D01*
G01*
X59055000Y-31115000D02*
G75*
G02X60325000Y-29845000I1270000J0D01*
G01*
X60325000Y-121285000D02*
G75*
G02X59055000Y-120015000I0J1270000D01*
G01*
D11*
G36*
X70709084Y-91529933D02*
X70000394Y-91618728D01*
X69878958Y-91641691D01*
X68989464Y-91821525D01*
X70059766Y-91894368D01*
X71677238Y-92067563D01*
X73153014Y-92356158D01*
X74482992Y-92758104D01*
X75663074Y-93271354D01*
X76689159Y-93893859D01*
X77557146Y-94623571D01*
X78262937Y-95458442D01*
X78717265Y-96219044D01*
X78895934Y-96589226D01*
X79033899Y-96900222D01*
X79110680Y-97104682D01*
X79119814Y-97149677D01*
X79162936Y-97203077D01*
X79309838Y-97234213D01*
X79586819Y-97244703D01*
X80020183Y-97236164D01*
X80330515Y-97224123D01*
X81839735Y-97240651D01*
X83257231Y-97426027D01*
X84598752Y-97783204D01*
X85709801Y-98232911D01*
X86159421Y-98455652D01*
X86598825Y-98690992D01*
X86958940Y-98901272D01*
X87080501Y-98980283D01*
X87551207Y-99340970D01*
X88062228Y-99792744D01*
X88559869Y-100283190D01*
X88990433Y-100759889D01*
X89255771Y-101103745D01*
X89450399Y-101377818D01*
X89599968Y-101572669D01*
X89671357Y-101645562D01*
X89649000Y-101567344D01*
X89549544Y-101362361D01*
X89395779Y-101077274D01*
X88618088Y-99857477D01*
X87744812Y-98802141D01*
X86782060Y-97915157D01*
X85735940Y-97200415D01*
X84612561Y-96661803D01*
X83418032Y-96303212D01*
X82158463Y-96128532D01*
X81596189Y-96110931D01*
X80626343Y-96110931D01*
X80223822Y-95589190D01*
X79319901Y-94563115D01*
X78287289Y-93648833D01*
X77156727Y-92867362D01*
X75958953Y-92239722D01*
X74724708Y-91786931D01*
X74619974Y-91757420D01*
X73987156Y-91627237D01*
X73220152Y-91537944D01*
X72378468Y-91490994D01*
X71521610Y-91487839D01*
X70709084Y-91529933D01*
X70709084Y-91529933D01*
G37*
X70709084Y-91529933D02*
X70000394Y-91618728D01*
X69878958Y-91641691D01*
X68989464Y-91821525D01*
X70059766Y-91894368D01*
X71677238Y-92067563D01*
X73153014Y-92356158D01*
X74482992Y-92758104D01*
X75663074Y-93271354D01*
X76689159Y-93893859D01*
X77557146Y-94623571D01*
X78262937Y-95458442D01*
X78717265Y-96219044D01*
X78895934Y-96589226D01*
X79033899Y-96900222D01*
X79110680Y-97104682D01*
X79119814Y-97149677D01*
X79162936Y-97203077D01*
X79309838Y-97234213D01*
X79586819Y-97244703D01*
X80020183Y-97236164D01*
X80330515Y-97224123D01*
X81839735Y-97240651D01*
X83257231Y-97426027D01*
X84598752Y-97783204D01*
X85709801Y-98232911D01*
X86159421Y-98455652D01*
X86598825Y-98690992D01*
X86958940Y-98901272D01*
X87080501Y-98980283D01*
X87551207Y-99340970D01*
X88062228Y-99792744D01*
X88559869Y-100283190D01*
X88990433Y-100759889D01*
X89255771Y-101103745D01*
X89450399Y-101377818D01*
X89599968Y-101572669D01*
X89671357Y-101645562D01*
X89649000Y-101567344D01*
X89549544Y-101362361D01*
X89395779Y-101077274D01*
X88618088Y-99857477D01*
X87744812Y-98802141D01*
X86782060Y-97915157D01*
X85735940Y-97200415D01*
X84612561Y-96661803D01*
X83418032Y-96303212D01*
X82158463Y-96128532D01*
X81596189Y-96110931D01*
X80626343Y-96110931D01*
X80223822Y-95589190D01*
X79319901Y-94563115D01*
X78287289Y-93648833D01*
X77156727Y-92867362D01*
X75958953Y-92239722D01*
X74724708Y-91786931D01*
X74619974Y-91757420D01*
X73987156Y-91627237D01*
X73220152Y-91537944D01*
X72378468Y-91490994D01*
X71521610Y-91487839D01*
X70709084Y-91529933D01*
G36*
X91869231Y-106241282D02*
X91918647Y-106290698D01*
X91968063Y-106241282D01*
X91918647Y-106191865D01*
X91869231Y-106241282D01*
X91869231Y-106241282D01*
G37*
X91869231Y-106241282D02*
X91918647Y-106290698D01*
X91968063Y-106241282D01*
X91918647Y-106191865D01*
X91869231Y-106241282D01*
G36*
X63963351Y-95307268D02*
X63834193Y-95542373D01*
X63660329Y-95893165D01*
X63456940Y-96326061D01*
X63239204Y-96807477D01*
X63022302Y-97303829D01*
X62821414Y-97781530D01*
X62651719Y-98206998D01*
X62528397Y-98546648D01*
X62524920Y-98557136D01*
X62252815Y-99435706D01*
X62052711Y-100226088D01*
X61915046Y-100989529D01*
X61830261Y-101787277D01*
X61788796Y-102680581D01*
X61780594Y-103325717D01*
X61785189Y-104160715D01*
X61809699Y-104849110D01*
X61861232Y-105441549D01*
X61946894Y-105988678D01*
X62073793Y-106541144D01*
X62249037Y-107149594D01*
X62371203Y-107534475D01*
X62885351Y-108868366D01*
X63551564Y-110156172D01*
X64385233Y-111424708D01*
X65203258Y-112467741D01*
X65439498Y-112736296D01*
X65734633Y-113052670D01*
X66067519Y-113396517D01*
X66417014Y-113747491D01*
X66761975Y-114085247D01*
X67081259Y-114389439D01*
X67353725Y-114639721D01*
X67558229Y-114815747D01*
X67673628Y-114897173D01*
X67678781Y-114863652D01*
X67654749Y-114826828D01*
X66691694Y-113405726D01*
X65865666Y-112077005D01*
X65159837Y-110808950D01*
X64557377Y-109569845D01*
X64041458Y-108327974D01*
X63701510Y-107376645D01*
X63285599Y-105985982D01*
X62995825Y-104655911D01*
X62817859Y-103307948D01*
X62745502Y-102139725D01*
X62757376Y-100510283D01*
X62914769Y-98990554D01*
X63222600Y-97551315D01*
X63685788Y-96163341D01*
X63797824Y-95888558D01*
X63927243Y-95566978D01*
X64011662Y-95330392D01*
X64035341Y-95223517D01*
X64032623Y-95221437D01*
X63963351Y-95307268D01*
X63963351Y-95307268D01*
G37*
X63963351Y-95307268D02*
X63834193Y-95542373D01*
X63660329Y-95893165D01*
X63456940Y-96326061D01*
X63239204Y-96807477D01*
X63022302Y-97303829D01*
X62821414Y-97781530D01*
X62651719Y-98206998D01*
X62528397Y-98546648D01*
X62524920Y-98557136D01*
X62252815Y-99435706D01*
X62052711Y-100226088D01*
X61915046Y-100989529D01*
X61830261Y-101787277D01*
X61788796Y-102680581D01*
X61780594Y-103325717D01*
X61785189Y-104160715D01*
X61809699Y-104849110D01*
X61861232Y-105441549D01*
X61946894Y-105988678D01*
X62073793Y-106541144D01*
X62249037Y-107149594D01*
X62371203Y-107534475D01*
X62885351Y-108868366D01*
X63551564Y-110156172D01*
X64385233Y-111424708D01*
X65203258Y-112467741D01*
X65439498Y-112736296D01*
X65734633Y-113052670D01*
X66067519Y-113396517D01*
X66417014Y-113747491D01*
X66761975Y-114085247D01*
X67081259Y-114389439D01*
X67353725Y-114639721D01*
X67558229Y-114815747D01*
X67673628Y-114897173D01*
X67678781Y-114863652D01*
X67654749Y-114826828D01*
X66691694Y-113405726D01*
X65865666Y-112077005D01*
X65159837Y-110808950D01*
X64557377Y-109569845D01*
X64041458Y-108327974D01*
X63701510Y-107376645D01*
X63285599Y-105985982D01*
X62995825Y-104655911D01*
X62817859Y-103307948D01*
X62745502Y-102139725D01*
X62757376Y-100510283D01*
X62914769Y-98990554D01*
X63222600Y-97551315D01*
X63685788Y-96163341D01*
X63797824Y-95888558D01*
X63927243Y-95566978D01*
X64011662Y-95330392D01*
X64035341Y-95223517D01*
X64032623Y-95221437D01*
X63963351Y-95307268D01*
G36*
X88600885Y-108509448D02*
X87997982Y-108634021D01*
X87619425Y-108773872D01*
X86951287Y-109188953D01*
X86420453Y-109722013D01*
X86031343Y-110345062D01*
X85788379Y-111030111D01*
X85695979Y-111749171D01*
X85758566Y-112474252D01*
X85980559Y-113177365D01*
X86366380Y-113830521D01*
X86753130Y-114258865D01*
X87327881Y-114698852D01*
X88012248Y-115035405D01*
X88840630Y-115284619D01*
X89036654Y-115327478D01*
X89636228Y-115424352D01*
X90255565Y-115465611D01*
X90922997Y-115448474D01*
X91666857Y-115370158D01*
X92515474Y-115227881D01*
X93497182Y-115018862D01*
X94401356Y-114800734D01*
X95507366Y-114538257D01*
X96474503Y-114343991D01*
X97347202Y-114212192D01*
X98169900Y-114137114D01*
X98987032Y-114113014D01*
X99627596Y-114125106D01*
X100217799Y-114157237D01*
X100818943Y-114207824D01*
X101362908Y-114270089D01*
X101781574Y-114337254D01*
X101801915Y-114341437D01*
X102276127Y-114457018D01*
X102865521Y-114624695D01*
X103508480Y-114824604D01*
X104143387Y-115036880D01*
X104708624Y-115241658D01*
X105137519Y-115416795D01*
X105366038Y-115509059D01*
X105496460Y-115541178D01*
X105508141Y-115534123D01*
X105422511Y-115456888D01*
X105190866Y-115324792D01*
X104851069Y-115155495D01*
X104440986Y-114966655D01*
X103998482Y-114775934D01*
X103561422Y-114600990D01*
X103304073Y-114506176D01*
X102545433Y-114257439D01*
X101827089Y-114066908D01*
X101100029Y-113926577D01*
X100315238Y-113828440D01*
X99423705Y-113764491D01*
X98561549Y-113731475D01*
X97762946Y-113714675D01*
X97105207Y-113714519D01*
X96532060Y-113733217D01*
X95987231Y-113772977D01*
X95414448Y-113836010D01*
X95201237Y-113863412D01*
X94259240Y-113967273D01*
X93340805Y-114029735D01*
X92479387Y-114050842D01*
X91708444Y-114030639D01*
X91061430Y-113969171D01*
X90571801Y-113866482D01*
X90542586Y-113857195D01*
X89955897Y-113606831D01*
X89462159Y-113282898D01*
X89078786Y-112909274D01*
X88823193Y-112509836D01*
X88712795Y-112108461D01*
X88765006Y-111729024D01*
X88860438Y-111550821D01*
X89029689Y-111374399D01*
X89205174Y-111358626D01*
X89425039Y-111507714D01*
X89545483Y-111626432D01*
X89923025Y-111897129D01*
X90343834Y-112000534D01*
X90771778Y-111950376D01*
X91170727Y-111760382D01*
X91504550Y-111444278D01*
X91737118Y-111015793D01*
X91803229Y-110768624D01*
X91803303Y-110256051D01*
X91632170Y-109747764D01*
X91313770Y-109279482D01*
X90872047Y-108886925D01*
X90361076Y-108617084D01*
X89854427Y-108496862D01*
X89243699Y-108462356D01*
X88600885Y-108509448D01*
X88600885Y-108509448D01*
G37*
X88600885Y-108509448D02*
X87997982Y-108634021D01*
X87619425Y-108773872D01*
X86951287Y-109188953D01*
X86420453Y-109722013D01*
X86031343Y-110345062D01*
X85788379Y-111030111D01*
X85695979Y-111749171D01*
X85758566Y-112474252D01*
X85980559Y-113177365D01*
X86366380Y-113830521D01*
X86753130Y-114258865D01*
X87327881Y-114698852D01*
X88012248Y-115035405D01*
X88840630Y-115284619D01*
X89036654Y-115327478D01*
X89636228Y-115424352D01*
X90255565Y-115465611D01*
X90922997Y-115448474D01*
X91666857Y-115370158D01*
X92515474Y-115227881D01*
X93497182Y-115018862D01*
X94401356Y-114800734D01*
X95507366Y-114538257D01*
X96474503Y-114343991D01*
X97347202Y-114212192D01*
X98169900Y-114137114D01*
X98987032Y-114113014D01*
X99627596Y-114125106D01*
X100217799Y-114157237D01*
X100818943Y-114207824D01*
X101362908Y-114270089D01*
X101781574Y-114337254D01*
X101801915Y-114341437D01*
X102276127Y-114457018D01*
X102865521Y-114624695D01*
X103508480Y-114824604D01*
X104143387Y-115036880D01*
X104708624Y-115241658D01*
X105137519Y-115416795D01*
X105366038Y-115509059D01*
X105496460Y-115541178D01*
X105508141Y-115534123D01*
X105422511Y-115456888D01*
X105190866Y-115324792D01*
X104851069Y-115155495D01*
X104440986Y-114966655D01*
X103998482Y-114775934D01*
X103561422Y-114600990D01*
X103304073Y-114506176D01*
X102545433Y-114257439D01*
X101827089Y-114066908D01*
X101100029Y-113926577D01*
X100315238Y-113828440D01*
X99423705Y-113764491D01*
X98561549Y-113731475D01*
X97762946Y-113714675D01*
X97105207Y-113714519D01*
X96532060Y-113733217D01*
X95987231Y-113772977D01*
X95414448Y-113836010D01*
X95201237Y-113863412D01*
X94259240Y-113967273D01*
X93340805Y-114029735D01*
X92479387Y-114050842D01*
X91708444Y-114030639D01*
X91061430Y-113969171D01*
X90571801Y-113866482D01*
X90542586Y-113857195D01*
X89955897Y-113606831D01*
X89462159Y-113282898D01*
X89078786Y-112909274D01*
X88823193Y-112509836D01*
X88712795Y-112108461D01*
X88765006Y-111729024D01*
X88860438Y-111550821D01*
X89029689Y-111374399D01*
X89205174Y-111358626D01*
X89425039Y-111507714D01*
X89545483Y-111626432D01*
X89923025Y-111897129D01*
X90343834Y-112000534D01*
X90771778Y-111950376D01*
X91170727Y-111760382D01*
X91504550Y-111444278D01*
X91737118Y-111015793D01*
X91803229Y-110768624D01*
X91803303Y-110256051D01*
X91632170Y-109747764D01*
X91313770Y-109279482D01*
X90872047Y-108886925D01*
X90361076Y-108617084D01*
X89854427Y-108496862D01*
X89243699Y-108462356D01*
X88600885Y-108509448D01*
G36*
X81946511Y-99996710D02*
X80821128Y-100235315D01*
X79741597Y-100644996D01*
X78733602Y-101221196D01*
X78204785Y-101619172D01*
X77349951Y-102451814D01*
X76618515Y-103421156D01*
X76022566Y-104500555D01*
X75574188Y-105663368D01*
X75285469Y-106882954D01*
X75168494Y-108132667D01*
X75166507Y-108316768D01*
X75259073Y-109593249D01*
X75531956Y-110800251D01*
X75977931Y-111930744D01*
X76589775Y-112977700D01*
X77360262Y-113934089D01*
X78282169Y-114792884D01*
X79348271Y-115547054D01*
X80551345Y-116189572D01*
X81884166Y-116713407D01*
X83339510Y-117111532D01*
X84408396Y-117308822D01*
X85018724Y-117376205D01*
X85769149Y-117421082D01*
X86604502Y-117443519D01*
X87469611Y-117443583D01*
X88309305Y-117421342D01*
X89068413Y-117376861D01*
X89691764Y-117310209D01*
X89744328Y-117302355D01*
X90228595Y-117223932D01*
X90690928Y-117139797D01*
X91165946Y-117041991D01*
X91688266Y-116922552D01*
X92292507Y-116773522D01*
X93013287Y-116586940D01*
X93885223Y-116354847D01*
X94004202Y-116322876D01*
X94984835Y-116061911D01*
X95807201Y-115851155D01*
X96502751Y-115685332D01*
X97102936Y-115559168D01*
X97639209Y-115467389D01*
X98143020Y-115404721D01*
X98645821Y-115365888D01*
X99179064Y-115345616D01*
X99774200Y-115338632D01*
X99874678Y-115338398D01*
X100633743Y-115343862D01*
X101239919Y-115364714D01*
X101737600Y-115404071D01*
X102171182Y-115465048D01*
X102444328Y-115518766D01*
X104093068Y-115973469D01*
X105753421Y-116623019D01*
X106175262Y-116818134D01*
X106596483Y-117016178D01*
X106944487Y-117174477D01*
X107185587Y-117278098D01*
X107286102Y-117312112D01*
X107287129Y-117310995D01*
X107203429Y-117235824D01*
X106974652Y-117093467D01*
X106634285Y-116901511D01*
X106215813Y-116677546D01*
X105752722Y-116439162D01*
X105278498Y-116203946D01*
X104826626Y-115989489D01*
X104458987Y-115825453D01*
X102932652Y-115264280D01*
X101434348Y-114897432D01*
X99959642Y-114724253D01*
X98504103Y-114744084D01*
X97749775Y-114830989D01*
X97298616Y-114906035D01*
X96708458Y-115014820D01*
X96032960Y-115146872D01*
X95325782Y-115291719D01*
X94685962Y-115428895D01*
X93698683Y-115642799D01*
X92866679Y-115815166D01*
X92153419Y-115952222D01*
X91522370Y-116060193D01*
X90937000Y-116145305D01*
X90360778Y-116213784D01*
X89757170Y-116271857D01*
X89721730Y-116274935D01*
X88207772Y-116322844D01*
X86786745Y-116196509D01*
X85457509Y-115895533D01*
X84218923Y-115419518D01*
X83069849Y-114768067D01*
X82009146Y-113940781D01*
X81438704Y-113385202D01*
X80697453Y-112516099D01*
X80138942Y-111650944D01*
X79750616Y-110763157D01*
X79519921Y-109826160D01*
X79448103Y-109170948D01*
X79470192Y-108255377D01*
X79639659Y-107359692D01*
X79941461Y-106514448D01*
X80360555Y-105750200D01*
X80881898Y-105097504D01*
X81490447Y-104586914D01*
X81792041Y-104409956D01*
X82173730Y-104269838D01*
X82648597Y-104173202D01*
X83145024Y-104127161D01*
X83591395Y-104138825D01*
X83885022Y-104202121D01*
X84055381Y-104280702D01*
X84102480Y-104377754D01*
X84045558Y-104563494D01*
X84008562Y-104653019D01*
X83862700Y-105239752D01*
X83908450Y-105816119D01*
X84140543Y-106354165D01*
X84388717Y-106669981D01*
X84912130Y-107087831D01*
X85499354Y-107336111D01*
X86120999Y-107419565D01*
X86747677Y-107342939D01*
X87349997Y-107110976D01*
X87898573Y-106728421D01*
X88364014Y-106200019D01*
X88486150Y-106008491D01*
X88615118Y-105769346D01*
X88695156Y-105547436D01*
X88737654Y-105283667D01*
X88754002Y-104918945D01*
X88756001Y-104608464D01*
X88750064Y-104146208D01*
X88722960Y-103812599D01*
X88660752Y-103538753D01*
X88549500Y-103255784D01*
X88432737Y-103010834D01*
X87911592Y-102164822D01*
X87244036Y-101448781D01*
X86427247Y-100860284D01*
X85458403Y-100396905D01*
X85340948Y-100352928D01*
X84232104Y-100050960D01*
X83092064Y-99933740D01*
X81946511Y-99996710D01*
X81946511Y-99996710D01*
G37*
X81946511Y-99996710D02*
X80821128Y-100235315D01*
X79741597Y-100644996D01*
X78733602Y-101221196D01*
X78204785Y-101619172D01*
X77349951Y-102451814D01*
X76618515Y-103421156D01*
X76022566Y-104500555D01*
X75574188Y-105663368D01*
X75285469Y-106882954D01*
X75168494Y-108132667D01*
X75166507Y-108316768D01*
X75259073Y-109593249D01*
X75531956Y-110800251D01*
X75977931Y-111930744D01*
X76589775Y-112977700D01*
X77360262Y-113934089D01*
X78282169Y-114792884D01*
X79348271Y-115547054D01*
X80551345Y-116189572D01*
X81884166Y-116713407D01*
X83339510Y-117111532D01*
X84408396Y-117308822D01*
X85018724Y-117376205D01*
X85769149Y-117421082D01*
X86604502Y-117443519D01*
X87469611Y-117443583D01*
X88309305Y-117421342D01*
X89068413Y-117376861D01*
X89691764Y-117310209D01*
X89744328Y-117302355D01*
X90228595Y-117223932D01*
X90690928Y-117139797D01*
X91165946Y-117041991D01*
X91688266Y-116922552D01*
X92292507Y-116773522D01*
X93013287Y-116586940D01*
X93885223Y-116354847D01*
X94004202Y-116322876D01*
X94984835Y-116061911D01*
X95807201Y-115851155D01*
X96502751Y-115685332D01*
X97102936Y-115559168D01*
X97639209Y-115467389D01*
X98143020Y-115404721D01*
X98645821Y-115365888D01*
X99179064Y-115345616D01*
X99774200Y-115338632D01*
X99874678Y-115338398D01*
X100633743Y-115343862D01*
X101239919Y-115364714D01*
X101737600Y-115404071D01*
X102171182Y-115465048D01*
X102444328Y-115518766D01*
X104093068Y-115973469D01*
X105753421Y-116623019D01*
X106175262Y-116818134D01*
X106596483Y-117016178D01*
X106944487Y-117174477D01*
X107185587Y-117278098D01*
X107286102Y-117312112D01*
X107287129Y-117310995D01*
X107203429Y-117235824D01*
X106974652Y-117093467D01*
X106634285Y-116901511D01*
X106215813Y-116677546D01*
X105752722Y-116439162D01*
X105278498Y-116203946D01*
X104826626Y-115989489D01*
X104458987Y-115825453D01*
X102932652Y-115264280D01*
X101434348Y-114897432D01*
X99959642Y-114724253D01*
X98504103Y-114744084D01*
X97749775Y-114830989D01*
X97298616Y-114906035D01*
X96708458Y-115014820D01*
X96032960Y-115146872D01*
X95325782Y-115291719D01*
X94685962Y-115428895D01*
X93698683Y-115642799D01*
X92866679Y-115815166D01*
X92153419Y-115952222D01*
X91522370Y-116060193D01*
X90937000Y-116145305D01*
X90360778Y-116213784D01*
X89757170Y-116271857D01*
X89721730Y-116274935D01*
X88207772Y-116322844D01*
X86786745Y-116196509D01*
X85457509Y-115895533D01*
X84218923Y-115419518D01*
X83069849Y-114768067D01*
X82009146Y-113940781D01*
X81438704Y-113385202D01*
X80697453Y-112516099D01*
X80138942Y-111650944D01*
X79750616Y-110763157D01*
X79519921Y-109826160D01*
X79448103Y-109170948D01*
X79470192Y-108255377D01*
X79639659Y-107359692D01*
X79941461Y-106514448D01*
X80360555Y-105750200D01*
X80881898Y-105097504D01*
X81490447Y-104586914D01*
X81792041Y-104409956D01*
X82173730Y-104269838D01*
X82648597Y-104173202D01*
X83145024Y-104127161D01*
X83591395Y-104138825D01*
X83885022Y-104202121D01*
X84055381Y-104280702D01*
X84102480Y-104377754D01*
X84045558Y-104563494D01*
X84008562Y-104653019D01*
X83862700Y-105239752D01*
X83908450Y-105816119D01*
X84140543Y-106354165D01*
X84388717Y-106669981D01*
X84912130Y-107087831D01*
X85499354Y-107336111D01*
X86120999Y-107419565D01*
X86747677Y-107342939D01*
X87349997Y-107110976D01*
X87898573Y-106728421D01*
X88364014Y-106200019D01*
X88486150Y-106008491D01*
X88615118Y-105769346D01*
X88695156Y-105547436D01*
X88737654Y-105283667D01*
X88754002Y-104918945D01*
X88756001Y-104608464D01*
X88750064Y-104146208D01*
X88722960Y-103812599D01*
X88660752Y-103538753D01*
X88549500Y-103255784D01*
X88432737Y-103010834D01*
X87911592Y-102164822D01*
X87244036Y-101448781D01*
X86427247Y-100860284D01*
X85458403Y-100396905D01*
X85340948Y-100352928D01*
X84232104Y-100050960D01*
X83092064Y-99933740D01*
X81946511Y-99996710D01*
G36*
X107416970Y-117423799D02*
X107435379Y-117458791D01*
X107528500Y-117553177D01*
X107545877Y-117557624D01*
X107552620Y-117493783D01*
X107534211Y-117458791D01*
X107441090Y-117364406D01*
X107423713Y-117359959D01*
X107416970Y-117423799D01*
X107416970Y-117423799D01*
G37*
X107416970Y-117423799D02*
X107435379Y-117458791D01*
X107528500Y-117553177D01*
X107545877Y-117557624D01*
X107552620Y-117493783D01*
X107534211Y-117458791D01*
X107441090Y-117364406D01*
X107423713Y-117359959D01*
X107416970Y-117423799D01*
G36*
X107682460Y-117607040D02*
X107731877Y-117656457D01*
X107781293Y-117607040D01*
X107731877Y-117557624D01*
X107682460Y-117607040D01*
X107682460Y-117607040D01*
G37*
X107682460Y-117607040D02*
X107731877Y-117656457D01*
X107781293Y-117607040D01*
X107731877Y-117557624D01*
X107682460Y-117607040D01*
G36*
X92230112Y-106399643D02*
X92420126Y-106559321D01*
X92497242Y-106616026D01*
X93153496Y-107206772D01*
X93656714Y-107912661D01*
X94002567Y-108718611D01*
X94186721Y-109609537D01*
X94204847Y-110570359D01*
X94052612Y-111585992D01*
X93993159Y-111825328D01*
X93913579Y-112137484D01*
X93860440Y-112372073D01*
X93847057Y-112456466D01*
X93933722Y-112495067D01*
X94155846Y-112495816D01*
X94315340Y-112478929D01*
X96201521Y-112300062D01*
X98010735Y-112299487D01*
X99754918Y-112478949D01*
X101446005Y-112840197D01*
X103095935Y-113384978D01*
X104394999Y-113954477D01*
X106006773Y-114844621D01*
X107508278Y-115893437D01*
X108913420Y-117110924D01*
X109262469Y-117454095D01*
X109563402Y-117752294D01*
X109732932Y-117907230D01*
X109773696Y-117920918D01*
X109688333Y-117795369D01*
X109657800Y-117755588D01*
X109358434Y-117400779D01*
X108944017Y-116952755D01*
X108450138Y-116446282D01*
X107912386Y-115916125D01*
X107366350Y-115397048D01*
X106847622Y-114923818D01*
X106391788Y-114531199D01*
X106196105Y-114374062D01*
X104716173Y-113331601D01*
X103176802Y-112449992D01*
X101595620Y-111736153D01*
X99990256Y-111197001D01*
X98378340Y-110839456D01*
X96777498Y-110670435D01*
X96756171Y-110669480D01*
X95466068Y-110612787D01*
X95364853Y-109856813D01*
X95155609Y-108954891D01*
X94787088Y-108166245D01*
X94263985Y-107497501D01*
X93590992Y-106955288D01*
X93128883Y-106699023D01*
X92662065Y-106484344D01*
X92354431Y-106362595D01*
X92209330Y-106334214D01*
X92230112Y-106399643D01*
X92230112Y-106399643D01*
G37*
X92230112Y-106399643D02*
X92420126Y-106559321D01*
X92497242Y-106616026D01*
X93153496Y-107206772D01*
X93656714Y-107912661D01*
X94002567Y-108718611D01*
X94186721Y-109609537D01*
X94204847Y-110570359D01*
X94052612Y-111585992D01*
X93993159Y-111825328D01*
X93913579Y-112137484D01*
X93860440Y-112372073D01*
X93847057Y-112456466D01*
X93933722Y-112495067D01*
X94155846Y-112495816D01*
X94315340Y-112478929D01*
X96201521Y-112300062D01*
X98010735Y-112299487D01*
X99754918Y-112478949D01*
X101446005Y-112840197D01*
X103095935Y-113384978D01*
X104394999Y-113954477D01*
X106006773Y-114844621D01*
X107508278Y-115893437D01*
X108913420Y-117110924D01*
X109262469Y-117454095D01*
X109563402Y-117752294D01*
X109732932Y-117907230D01*
X109773696Y-117920918D01*
X109688333Y-117795369D01*
X109657800Y-117755588D01*
X109358434Y-117400779D01*
X108944017Y-116952755D01*
X108450138Y-116446282D01*
X107912386Y-115916125D01*
X107366350Y-115397048D01*
X106847622Y-114923818D01*
X106391788Y-114531199D01*
X106196105Y-114374062D01*
X104716173Y-113331601D01*
X103176802Y-112449992D01*
X101595620Y-111736153D01*
X99990256Y-111197001D01*
X98378340Y-110839456D01*
X96777498Y-110670435D01*
X96756171Y-110669480D01*
X95466068Y-110612787D01*
X95364853Y-109856813D01*
X95155609Y-108954891D01*
X94787088Y-108166245D01*
X94263985Y-107497501D01*
X93590992Y-106955288D01*
X93128883Y-106699023D01*
X92662065Y-106484344D01*
X92354431Y-106362595D01*
X92209330Y-106334214D01*
X92230112Y-106399643D01*
G36*
X70620203Y-94062443D02*
X69701216Y-94222267D01*
X68842523Y-94565536D01*
X68050154Y-95085626D01*
X67330136Y-95775912D01*
X66688498Y-96629771D01*
X66131267Y-97640576D01*
X65664473Y-98801705D01*
X65357253Y-99846076D01*
X65279933Y-100177511D01*
X65223199Y-100494640D01*
X65184043Y-100837075D01*
X65159459Y-101244427D01*
X65146440Y-101756307D01*
X65141979Y-102412326D01*
X65141884Y-102683305D01*
X65145624Y-103416353D01*
X65157786Y-103994450D01*
X65181543Y-104460240D01*
X65220070Y-104856369D01*
X65276538Y-105225481D01*
X65354122Y-105610221D01*
X65362518Y-105648285D01*
X65788747Y-107249974D01*
X66346480Y-108771215D01*
X66765708Y-109700426D01*
X67681583Y-111379131D01*
X68748178Y-112933844D01*
X69958690Y-114359982D01*
X71306322Y-115652967D01*
X72784272Y-116808217D01*
X74385740Y-117821151D01*
X76103927Y-118687190D01*
X77932031Y-119401752D01*
X79863254Y-119960257D01*
X81890794Y-120358124D01*
X82761783Y-120475329D01*
X83301776Y-120523244D01*
X83986658Y-120560803D01*
X84773068Y-120587730D01*
X85617642Y-120603750D01*
X86477019Y-120608589D01*
X87307836Y-120601970D01*
X88066731Y-120583619D01*
X88710341Y-120553260D01*
X89151332Y-120515887D01*
X90262727Y-120366955D01*
X91371201Y-120173196D01*
X92515586Y-119925705D01*
X93734718Y-119615578D01*
X95067431Y-119233912D01*
X96020203Y-118940982D01*
X97133392Y-118597051D01*
X98088340Y-118316208D01*
X98911739Y-118091747D01*
X99630284Y-117916966D01*
X100270667Y-117785161D01*
X100859582Y-117689628D01*
X101150803Y-117652470D01*
X102546842Y-117589038D01*
X103983487Y-117717092D01*
X105456177Y-118035681D01*
X106960355Y-118543853D01*
X108300164Y-119143977D01*
X108688454Y-119333943D01*
X109001902Y-119480593D01*
X109204831Y-119567677D01*
X109263783Y-119582870D01*
X109181579Y-119508895D01*
X108954392Y-119358034D01*
X108611360Y-119146964D01*
X108181621Y-118892359D01*
X107694313Y-118610895D01*
X107178573Y-118319248D01*
X106663539Y-118034092D01*
X106178349Y-117772103D01*
X105752141Y-117549957D01*
X105458725Y-117405256D01*
X104189470Y-116848973D01*
X103025008Y-116433898D01*
X101939363Y-116153011D01*
X100906558Y-115999294D01*
X100121760Y-115963161D01*
X99635025Y-115970430D01*
X99163374Y-115996513D01*
X98682560Y-116046343D01*
X98168335Y-116124854D01*
X97596450Y-116236979D01*
X96942658Y-116387652D01*
X96182711Y-116581806D01*
X95292361Y-116824375D01*
X94247360Y-117120292D01*
X93796468Y-117250124D01*
X92213919Y-117688665D01*
X90785131Y-118042263D01*
X89486478Y-118313183D01*
X88294333Y-118503686D01*
X87185069Y-118616036D01*
X86135058Y-118652496D01*
X85120673Y-118615328D01*
X84118287Y-118506795D01*
X83104273Y-118329161D01*
X82924873Y-118291357D01*
X81241831Y-117841941D01*
X79662581Y-117245542D01*
X78196578Y-116509534D01*
X76853276Y-115641291D01*
X75642128Y-114648188D01*
X74572588Y-113537597D01*
X73654110Y-112316894D01*
X72896148Y-110993453D01*
X72536477Y-110188320D01*
X72105747Y-108888248D01*
X71808255Y-107472833D01*
X71645577Y-105974168D01*
X71619292Y-104424344D01*
X71730977Y-102855454D01*
X71982208Y-101299591D01*
X72078388Y-100868067D01*
X72250943Y-100139989D01*
X72695690Y-100102898D01*
X73395011Y-99955929D01*
X73988410Y-99649432D01*
X74463875Y-99197813D01*
X74809394Y-98615479D01*
X75012956Y-97916835D01*
X75065504Y-97260866D01*
X75009554Y-96678751D01*
X74830404Y-96170422D01*
X74504264Y-95683509D01*
X74196756Y-95348259D01*
X73482729Y-94770615D01*
X72668908Y-94357108D01*
X71775994Y-94115178D01*
X70824685Y-94052268D01*
X70620203Y-94062443D01*
X70620203Y-94062443D01*
G37*
X70620203Y-94062443D02*
X69701216Y-94222267D01*
X68842523Y-94565536D01*
X68050154Y-95085626D01*
X67330136Y-95775912D01*
X66688498Y-96629771D01*
X66131267Y-97640576D01*
X65664473Y-98801705D01*
X65357253Y-99846076D01*
X65279933Y-100177511D01*
X65223199Y-100494640D01*
X65184043Y-100837075D01*
X65159459Y-101244427D01*
X65146440Y-101756307D01*
X65141979Y-102412326D01*
X65141884Y-102683305D01*
X65145624Y-103416353D01*
X65157786Y-103994450D01*
X65181543Y-104460240D01*
X65220070Y-104856369D01*
X65276538Y-105225481D01*
X65354122Y-105610221D01*
X65362518Y-105648285D01*
X65788747Y-107249974D01*
X66346480Y-108771215D01*
X66765708Y-109700426D01*
X67681583Y-111379131D01*
X68748178Y-112933844D01*
X69958690Y-114359982D01*
X71306322Y-115652967D01*
X72784272Y-116808217D01*
X74385740Y-117821151D01*
X76103927Y-118687190D01*
X77932031Y-119401752D01*
X79863254Y-119960257D01*
X81890794Y-120358124D01*
X82761783Y-120475329D01*
X83301776Y-120523244D01*
X83986658Y-120560803D01*
X84773068Y-120587730D01*
X85617642Y-120603750D01*
X86477019Y-120608589D01*
X87307836Y-120601970D01*
X88066731Y-120583619D01*
X88710341Y-120553260D01*
X89151332Y-120515887D01*
X90262727Y-120366955D01*
X91371201Y-120173196D01*
X92515586Y-119925705D01*
X93734718Y-119615578D01*
X95067431Y-119233912D01*
X96020203Y-118940982D01*
X97133392Y-118597051D01*
X98088340Y-118316208D01*
X98911739Y-118091747D01*
X99630284Y-117916966D01*
X100270667Y-117785161D01*
X100859582Y-117689628D01*
X101150803Y-117652470D01*
X102546842Y-117589038D01*
X103983487Y-117717092D01*
X105456177Y-118035681D01*
X106960355Y-118543853D01*
X108300164Y-119143977D01*
X108688454Y-119333943D01*
X109001902Y-119480593D01*
X109204831Y-119567677D01*
X109263783Y-119582870D01*
X109181579Y-119508895D01*
X108954392Y-119358034D01*
X108611360Y-119146964D01*
X108181621Y-118892359D01*
X107694313Y-118610895D01*
X107178573Y-118319248D01*
X106663539Y-118034092D01*
X106178349Y-117772103D01*
X105752141Y-117549957D01*
X105458725Y-117405256D01*
X104189470Y-116848973D01*
X103025008Y-116433898D01*
X101939363Y-116153011D01*
X100906558Y-115999294D01*
X100121760Y-115963161D01*
X99635025Y-115970430D01*
X99163374Y-115996513D01*
X98682560Y-116046343D01*
X98168335Y-116124854D01*
X97596450Y-116236979D01*
X96942658Y-116387652D01*
X96182711Y-116581806D01*
X95292361Y-116824375D01*
X94247360Y-117120292D01*
X93796468Y-117250124D01*
X92213919Y-117688665D01*
X90785131Y-118042263D01*
X89486478Y-118313183D01*
X88294333Y-118503686D01*
X87185069Y-118616036D01*
X86135058Y-118652496D01*
X85120673Y-118615328D01*
X84118287Y-118506795D01*
X83104273Y-118329161D01*
X82924873Y-118291357D01*
X81241831Y-117841941D01*
X79662581Y-117245542D01*
X78196578Y-116509534D01*
X76853276Y-115641291D01*
X75642128Y-114648188D01*
X74572588Y-113537597D01*
X73654110Y-112316894D01*
X72896148Y-110993453D01*
X72536477Y-110188320D01*
X72105747Y-108888248D01*
X71808255Y-107472833D01*
X71645577Y-105974168D01*
X71619292Y-104424344D01*
X71730977Y-102855454D01*
X71982208Y-101299591D01*
X72078388Y-100868067D01*
X72250943Y-100139989D01*
X72695690Y-100102898D01*
X73395011Y-99955929D01*
X73988410Y-99649432D01*
X74463875Y-99197813D01*
X74809394Y-98615479D01*
X75012956Y-97916835D01*
X75065504Y-97260866D01*
X75009554Y-96678751D01*
X74830404Y-96170422D01*
X74504264Y-95683509D01*
X74196756Y-95348259D01*
X73482729Y-94770615D01*
X72668908Y-94357108D01*
X71775994Y-94115178D01*
X70824685Y-94052268D01*
X70620203Y-94062443D01*
G36*
X73328628Y-32997633D02*
X73297954Y-33049634D01*
X73316939Y-33166889D01*
X73361353Y-33376676D01*
X73373704Y-33430634D01*
X73406446Y-33660246D01*
X73366572Y-33742168D01*
X73257464Y-33672629D01*
X73207207Y-33616242D01*
X73072797Y-33511075D01*
X72857776Y-33388911D01*
X72634222Y-33286428D01*
X72474210Y-33240308D01*
X72468138Y-33240134D01*
X72479027Y-33293394D01*
X72549508Y-33388300D01*
X72732466Y-33649567D01*
X72948844Y-34032809D01*
X73179524Y-34499024D01*
X73405386Y-35009211D01*
X73607313Y-35524369D01*
X73636490Y-35605690D01*
X73783690Y-36041556D01*
X73922569Y-36488736D01*
X74049651Y-36930597D01*
X74161458Y-37350506D01*
X74254515Y-37731831D01*
X74325344Y-38057938D01*
X74370468Y-38312194D01*
X74386410Y-38477968D01*
X74369693Y-38538626D01*
X74316841Y-38477535D01*
X74224376Y-38278063D01*
X74162499Y-38122011D01*
X74030542Y-37817885D01*
X73880422Y-37586894D01*
X73674182Y-37389102D01*
X73373867Y-37184574D01*
X73139928Y-37046151D01*
X72830640Y-36887617D01*
X72449404Y-36720453D01*
X72040281Y-36560807D01*
X71647330Y-36424826D01*
X71314612Y-36328660D01*
X71086188Y-36288456D01*
X71071678Y-36288134D01*
X70838854Y-36259541D01*
X70610561Y-36199133D01*
X70386064Y-36154823D01*
X70072449Y-36133183D01*
X69828097Y-36135633D01*
X69300940Y-36161134D01*
X69692246Y-36436300D01*
X69961538Y-36618631D01*
X70110036Y-36700000D01*
X70149019Y-36685420D01*
X70120934Y-36626800D01*
X70123905Y-36548618D01*
X70151705Y-36542134D01*
X70245591Y-36601149D01*
X70413690Y-36756267D01*
X70620512Y-36974594D01*
X70631281Y-36986634D01*
X71027759Y-37431134D01*
X70974750Y-37092467D01*
X70921740Y-36753800D01*
X71198670Y-37228059D01*
X71404086Y-37568997D01*
X71562849Y-37796358D01*
X71706760Y-37946626D01*
X71867623Y-38056287D01*
X71965601Y-38107916D01*
X72167389Y-38184761D01*
X72273959Y-38157174D01*
X72286103Y-38140819D01*
X72351724Y-38120988D01*
X72403383Y-38224280D01*
X72475478Y-38366789D01*
X72529921Y-38404800D01*
X72615331Y-38445513D01*
X72811680Y-38554381D01*
X73085273Y-38711503D01*
X73402413Y-38896973D01*
X73729405Y-39090888D01*
X74032554Y-39273346D01*
X74278164Y-39424442D01*
X74432538Y-39524272D01*
X74461919Y-39546003D01*
X74454008Y-39629643D01*
X74413145Y-39759534D01*
X74364525Y-39854889D01*
X74280254Y-39914228D01*
X74123188Y-39947611D01*
X73856185Y-39965097D01*
X73628160Y-39972133D01*
X72933699Y-40037147D01*
X72406934Y-40175574D01*
X72092448Y-40286070D01*
X71803438Y-40381064D01*
X71644934Y-40428143D01*
X71428609Y-40501195D01*
X71125119Y-40621618D01*
X70799333Y-40762224D01*
X70516123Y-40895827D01*
X70459600Y-40924933D01*
X70407064Y-40941365D01*
X70473051Y-40876487D01*
X70637730Y-40746620D01*
X70881270Y-40568085D01*
X70967600Y-40506871D01*
X71207341Y-40351657D01*
X71552771Y-40145440D01*
X71958852Y-39914387D01*
X72380547Y-39684663D01*
X72406934Y-39670660D01*
X72840042Y-39436383D01*
X73121456Y-39265942D01*
X73251623Y-39148834D01*
X73230990Y-39074557D01*
X73060007Y-39032608D01*
X72739121Y-39012486D01*
X72435296Y-39005906D01*
X71870992Y-38997467D01*
X71525129Y-39390387D01*
X71336367Y-39596758D01*
X71230909Y-39684257D01*
X71186305Y-39666264D01*
X71179267Y-39596488D01*
X71220166Y-39364643D01*
X71270794Y-39238649D01*
X71327115Y-39089772D01*
X71322071Y-39027382D01*
X71209819Y-39012828D01*
X70992453Y-39043551D01*
X70723478Y-39105551D01*
X70456398Y-39184823D01*
X70244716Y-39267368D01*
X70143881Y-39335713D01*
X70010058Y-39426090D01*
X69754648Y-39436577D01*
X69731869Y-39434542D01*
X69489647Y-39435588D01*
X69401576Y-39498928D01*
X69401267Y-39504945D01*
X69369583Y-39648084D01*
X69292626Y-39857647D01*
X69285766Y-39873671D01*
X69176802Y-40134192D01*
X69057811Y-40430765D01*
X69038944Y-40479134D01*
X68910359Y-40810729D01*
X68831041Y-41004252D01*
X68787202Y-41078785D01*
X68765052Y-41053411D01*
X68750803Y-40947211D01*
X68744287Y-40886910D01*
X68751312Y-40647873D01*
X68802967Y-40339900D01*
X68845700Y-40174011D01*
X68911642Y-39922253D01*
X68941943Y-39743729D01*
X68936781Y-39690092D01*
X68872917Y-39723189D01*
X68775281Y-39887046D01*
X68655622Y-40149320D01*
X68525687Y-40477671D01*
X68397223Y-40839756D01*
X68281979Y-41203235D01*
X68191702Y-41535766D01*
X68138139Y-41805007D01*
X68128574Y-41915089D01*
X68119110Y-42034894D01*
X68071363Y-42012739D01*
X68003738Y-41926410D01*
X67861067Y-41688906D01*
X67752034Y-41386506D01*
X67673278Y-40997720D01*
X67621436Y-40501063D01*
X67593146Y-39875045D01*
X67585167Y-39251467D01*
X67589336Y-38566924D01*
X67608569Y-38021912D01*
X67646756Y-37586995D01*
X67707789Y-37232739D01*
X67795558Y-36929710D01*
X67913957Y-36648472D01*
X67934954Y-36605634D01*
X68002581Y-36445985D01*
X67988496Y-36397089D01*
X67886370Y-36463460D01*
X67689875Y-36649615D01*
X67392680Y-36960068D01*
X67302948Y-37056508D01*
X66686295Y-37721968D01*
X66902207Y-38148051D01*
X67005504Y-38377177D01*
X67050714Y-38531850D01*
X67037024Y-38574134D01*
X66921014Y-38512488D01*
X66903228Y-38488865D01*
X66796752Y-38394098D01*
X66609047Y-38278842D01*
X66592170Y-38269993D01*
X66362340Y-38184853D01*
X66246977Y-38218971D01*
X66249992Y-38363343D01*
X66375298Y-38608962D01*
X66417366Y-38672345D01*
X66603698Y-38965985D01*
X66809719Y-39324790D01*
X67009446Y-39699571D01*
X67176891Y-40041139D01*
X67286070Y-40300304D01*
X67300508Y-40344087D01*
X67327424Y-40458496D01*
X67304640Y-40473790D01*
X67220993Y-40378144D01*
X67065318Y-40159735D01*
X66908405Y-39928800D01*
X66664945Y-39596507D01*
X66378389Y-39246125D01*
X66207429Y-39056328D01*
X65975291Y-38829402D01*
X65724402Y-38610703D01*
X65479202Y-38417371D01*
X65264127Y-38266546D01*
X65103619Y-38175368D01*
X65022114Y-38160977D01*
X65043923Y-38240304D01*
X65098538Y-38393243D01*
X65120893Y-38515471D01*
X65154960Y-38730299D01*
X65206473Y-38986197D01*
X65206504Y-38986333D01*
X65235792Y-39177518D01*
X65200321Y-39241192D01*
X65155698Y-39234855D01*
X65038476Y-39134600D01*
X64956267Y-38993245D01*
X64847446Y-38752369D01*
X64699744Y-38454548D01*
X64533527Y-38137247D01*
X64369156Y-37837930D01*
X64226996Y-37594061D01*
X64127409Y-37443104D01*
X64097288Y-37412918D01*
X64060189Y-37472985D01*
X64048725Y-37653330D01*
X64054858Y-37780388D01*
X64060840Y-38027775D01*
X64025267Y-38121334D01*
X63991985Y-38114267D01*
X63903230Y-37984905D01*
X63897934Y-37944920D01*
X63838350Y-37832577D01*
X63688111Y-37656982D01*
X63489988Y-37459149D01*
X63286750Y-37280096D01*
X63121166Y-37160835D01*
X63053159Y-37134800D01*
X62989325Y-37212372D01*
X62970069Y-37428024D01*
X62996556Y-37756164D01*
X63018250Y-37901368D01*
X63064725Y-38079028D01*
X63159869Y-38208702D01*
X63344095Y-38331116D01*
X63546485Y-38433708D01*
X64024934Y-38665148D01*
X63538100Y-38625758D01*
X63247084Y-38612128D01*
X63091698Y-38651435D01*
X63048325Y-38774961D01*
X63093349Y-39013990D01*
X63134204Y-39160768D01*
X63174103Y-39423430D01*
X63125001Y-39560973D01*
X63095507Y-39653926D01*
X63204222Y-39732374D01*
X63274898Y-39760331D01*
X63532428Y-39854272D01*
X63728600Y-39925774D01*
X63970289Y-39999266D01*
X64214463Y-40057020D01*
X64418079Y-40117313D01*
X64536780Y-40189425D01*
X64539369Y-40193213D01*
X64492131Y-40227042D01*
X64317725Y-40234321D01*
X64055849Y-40217312D01*
X63746198Y-40178278D01*
X63495767Y-40133737D01*
X63345652Y-40135039D01*
X63314345Y-40210573D01*
X63383086Y-40335841D01*
X63533112Y-40486340D01*
X63745661Y-40637573D01*
X63968855Y-40751525D01*
X64248880Y-40845031D01*
X64583608Y-40924697D01*
X64702267Y-40945208D01*
X64942655Y-40982304D01*
X65023795Y-41001902D01*
X64954011Y-41010884D01*
X64786934Y-41015217D01*
X64469360Y-41002085D01*
X64134458Y-40960887D01*
X64091876Y-40953111D01*
X63873869Y-40916774D01*
X63787128Y-40928681D01*
X63797928Y-40998979D01*
X63816709Y-41035899D01*
X63889616Y-41203968D01*
X63855924Y-41273076D01*
X63763122Y-41283467D01*
X63604736Y-41333178D01*
X63413153Y-41452709D01*
X63413037Y-41452800D01*
X63233337Y-41571343D01*
X63098862Y-41622104D01*
X63096941Y-41622133D01*
X62974170Y-41679097D01*
X62812828Y-41817414D01*
X62801463Y-41829334D01*
X62680011Y-41968297D01*
X62673241Y-42023081D01*
X62765538Y-42028581D01*
X63061521Y-42054714D01*
X63404150Y-42146623D01*
X63754911Y-42285520D01*
X64075293Y-42452614D01*
X64326783Y-42629116D01*
X64470869Y-42796237D01*
X64490600Y-42870216D01*
X64465867Y-42951474D01*
X64368376Y-42896097D01*
X64156478Y-42785292D01*
X63825711Y-42685335D01*
X63426543Y-42607187D01*
X63009439Y-42561812D01*
X62797267Y-42554797D01*
X62246934Y-42554118D01*
X61611934Y-43195914D01*
X60976934Y-43837709D01*
X61823600Y-43731823D01*
X61552429Y-43856545D01*
X61142849Y-44081996D01*
X60699901Y-44402538D01*
X60249541Y-44788130D01*
X60033128Y-44990603D01*
X59942876Y-45094050D01*
X59973373Y-45106040D01*
X60045600Y-45073390D01*
X60703836Y-44781387D01*
X61470638Y-44510429D01*
X62285274Y-44278258D01*
X63087010Y-44102620D01*
X63663533Y-44016371D01*
X63913212Y-43966971D01*
X64008553Y-43905072D01*
X63947198Y-43850701D01*
X63726784Y-43823885D01*
X63686267Y-43823467D01*
X63477659Y-43801346D01*
X63353768Y-43747469D01*
X63349135Y-43741282D01*
X63366219Y-43658910D01*
X63513153Y-43609462D01*
X63752887Y-43597264D01*
X64048369Y-43626642D01*
X64155881Y-43647070D01*
X64511011Y-43692413D01*
X64828759Y-43678358D01*
X65074562Y-43612881D01*
X65213862Y-43503960D01*
X65227944Y-43399660D01*
X65216070Y-43291946D01*
X65294265Y-43309627D01*
X65346517Y-43340892D01*
X65473792Y-43445791D01*
X65506600Y-43505166D01*
X65581601Y-43545978D01*
X65768257Y-43568139D01*
X65834504Y-43569467D01*
X66109803Y-43605654D01*
X66432402Y-43697348D01*
X66575338Y-43754136D01*
X66988267Y-43938805D01*
X66630432Y-44029303D01*
X66272597Y-44119800D01*
X66568982Y-44408863D01*
X66865368Y-44697925D01*
X66630484Y-44852805D01*
X66366408Y-44984668D01*
X66142045Y-44978224D01*
X65898440Y-44832867D01*
X65691498Y-44727435D01*
X65472322Y-44697509D01*
X65289503Y-44736961D01*
X65191633Y-44839663D01*
X65191899Y-44921965D01*
X65166034Y-45053788D01*
X64999868Y-45180433D01*
X64925449Y-45218112D01*
X64619684Y-45363921D01*
X64849233Y-45546194D01*
X65181293Y-45806243D01*
X65409915Y-45974691D01*
X65561233Y-46068955D01*
X65661378Y-46106455D01*
X65694309Y-46109467D01*
X65849362Y-46159052D01*
X65977252Y-46240325D01*
X66063053Y-46317576D01*
X66041825Y-46345783D01*
X65889481Y-46333229D01*
X65760600Y-46314846D01*
X65438352Y-46240150D01*
X65123149Y-46126636D01*
X65065473Y-46099321D01*
X64845736Y-45998918D01*
X64683040Y-45943773D01*
X64655495Y-45940134D01*
X64526748Y-45891578D01*
X64348978Y-45774407D01*
X64344370Y-45770800D01*
X64153968Y-45651338D01*
X63997894Y-45601467D01*
X63997588Y-45601467D01*
X63842080Y-45645631D01*
X63647379Y-45753333D01*
X63466226Y-45887385D01*
X63351360Y-46010600D01*
X63337179Y-46067134D01*
X63311909Y-46190805D01*
X63240361Y-46298202D01*
X63160055Y-46414531D01*
X63212355Y-46474158D01*
X63272576Y-46495535D01*
X63442145Y-46561821D01*
X63688911Y-46671442D01*
X63813267Y-46730133D01*
X64029818Y-46838671D01*
X64107391Y-46897325D01*
X64061027Y-46926580D01*
X63967390Y-46940016D01*
X63755356Y-46931050D01*
X63466496Y-46879081D01*
X63300775Y-46835643D01*
X63044536Y-46769779D01*
X62856166Y-46740131D01*
X62795588Y-46745505D01*
X62727160Y-46833852D01*
X62617212Y-47013776D01*
X62499347Y-47225212D01*
X62407168Y-47408095D01*
X62373934Y-47499199D01*
X62443940Y-47542665D01*
X62564434Y-47584532D01*
X62670314Y-47625418D01*
X62655340Y-47670770D01*
X62502964Y-47745118D01*
X62437434Y-47772796D01*
X62198534Y-47926751D01*
X62098761Y-48148365D01*
X62112286Y-48423769D01*
X62097453Y-48537205D01*
X62046387Y-48760815D01*
X61983508Y-48997576D01*
X61907708Y-49326299D01*
X61899783Y-49520613D01*
X61957745Y-49573132D01*
X62079604Y-49476470D01*
X62104558Y-49447081D01*
X62238597Y-49308591D01*
X62436097Y-49152443D01*
X62727775Y-48956115D01*
X63043076Y-48758972D01*
X63283102Y-48620655D01*
X63405239Y-48581985D01*
X63429747Y-48644694D01*
X63385469Y-48788209D01*
X63337266Y-48963698D01*
X63343329Y-49054417D01*
X63416292Y-49014877D01*
X63586786Y-48876772D01*
X63831546Y-48660208D01*
X64127308Y-48385291D01*
X64220739Y-48296136D01*
X64995315Y-47624701D01*
X65783128Y-47079831D01*
X66559754Y-46677809D01*
X66779675Y-46590164D01*
X67059134Y-46494636D01*
X67373135Y-46399217D01*
X67678085Y-46315543D01*
X67930392Y-46255252D01*
X68086460Y-46229979D01*
X68114528Y-46233838D01*
X68146071Y-46351957D01*
X68139780Y-46611971D01*
X68095185Y-47023277D01*
X68063616Y-47252467D01*
X67961748Y-47991865D01*
X67887975Y-48618168D01*
X67838254Y-49184535D01*
X67808541Y-49744125D01*
X67794789Y-50350098D01*
X67792492Y-50816035D01*
X67800993Y-51399604D01*
X67824687Y-52043677D01*
X67860981Y-52713917D01*
X67907283Y-53375989D01*
X67961001Y-53995558D01*
X68019542Y-54538288D01*
X68080315Y-54969844D01*
X68122401Y-55185728D01*
X68160962Y-55396746D01*
X68163684Y-55525506D01*
X68158163Y-55537015D01*
X68155318Y-55634071D01*
X68192235Y-55835114D01*
X68219243Y-55943090D01*
X68285817Y-56197217D01*
X68334448Y-56395114D01*
X68343963Y-56438470D01*
X68413492Y-56751494D01*
X68514182Y-57165310D01*
X68631014Y-57621950D01*
X68748967Y-58063446D01*
X68853024Y-58431830D01*
X68901563Y-58590617D01*
X68957685Y-58787891D01*
X68999381Y-59000517D01*
X69028669Y-59256867D01*
X69047566Y-59585316D01*
X69058091Y-60014237D01*
X69062259Y-60572006D01*
X69062600Y-60855450D01*
X69062600Y-62619467D01*
X70332600Y-62619467D01*
X70774561Y-62615300D01*
X71149629Y-62603820D01*
X71428541Y-62586554D01*
X71582033Y-62565030D01*
X71602600Y-62553146D01*
X71569652Y-62455111D01*
X71479514Y-62233977D01*
X71345250Y-61920719D01*
X71179923Y-61546311D01*
X71147348Y-61473646D01*
X70884598Y-60882834D01*
X70685249Y-60411359D01*
X70540588Y-60025344D01*
X70441903Y-59690914D01*
X70380484Y-59374194D01*
X70347617Y-59041309D01*
X70334591Y-58658385D01*
X70332600Y-58305592D01*
X70340076Y-57792824D01*
X70365010Y-57294458D01*
X70411160Y-56787698D01*
X70482284Y-56249748D01*
X70582143Y-55657813D01*
X70714494Y-54989096D01*
X70883095Y-54220801D01*
X71091707Y-53330132D01*
X71282568Y-52544134D01*
X71444286Y-51917389D01*
X71616738Y-51304806D01*
X71792298Y-50728713D01*
X71963337Y-50211436D01*
X72122229Y-49775302D01*
X72261346Y-49442639D01*
X72373060Y-49235773D01*
X72432845Y-49177052D01*
X72551345Y-49196710D01*
X72764806Y-49278123D01*
X72947752Y-49364312D01*
X73262549Y-49514230D01*
X73456796Y-49573064D01*
X73538419Y-49528639D01*
X73515347Y-49368779D01*
X73395505Y-49081310D01*
X73283490Y-48848689D01*
X73132491Y-48514685D01*
X73074389Y-48316336D01*
X73108971Y-48255476D01*
X73236021Y-48333940D01*
X73333136Y-48424972D01*
X73476816Y-48562808D01*
X73538981Y-48585563D01*
X73557476Y-48498265D01*
X73559965Y-48455118D01*
X73561845Y-48241025D01*
X73558145Y-48216805D01*
X71557590Y-48216805D01*
X71538627Y-48387487D01*
X71476179Y-48644851D01*
X71364744Y-49010489D01*
X71198822Y-49505994D01*
X71139560Y-49677546D01*
X70967147Y-50185213D01*
X70780540Y-50753472D01*
X70590003Y-51349172D01*
X70405801Y-51939162D01*
X70238199Y-52490289D01*
X70097462Y-52969401D01*
X69993855Y-53343346D01*
X69950490Y-53517800D01*
X69866505Y-53893061D01*
X69812747Y-54146238D01*
X69780280Y-54319988D01*
X69773130Y-54364467D01*
X69739155Y-54526303D01*
X69673649Y-54796608D01*
X69589960Y-55120572D01*
X69578650Y-55162988D01*
X69504467Y-55473464D01*
X69461403Y-55722480D01*
X69457082Y-55863845D01*
X69461175Y-55874570D01*
X69455908Y-55916266D01*
X69417628Y-55898579D01*
X69339374Y-55780638D01*
X69280577Y-55576156D01*
X69279223Y-55567997D01*
X69249129Y-55381826D01*
X69198737Y-55070363D01*
X69134820Y-54675468D01*
X69064154Y-54239004D01*
X69057050Y-54195134D01*
X68978379Y-53588544D01*
X68914278Y-52852346D01*
X68865760Y-52025721D01*
X68833835Y-51147847D01*
X68819518Y-50257908D01*
X68823819Y-49395083D01*
X68847751Y-48598553D01*
X68892325Y-47907500D01*
X68894113Y-47887467D01*
X68950603Y-47265222D01*
X68995157Y-46791521D01*
X69030537Y-46446211D01*
X69059504Y-46209143D01*
X69084819Y-46060165D01*
X69109246Y-45979126D01*
X69135545Y-45945876D01*
X69161005Y-45940134D01*
X69388686Y-46020762D01*
X69566632Y-46258090D01*
X69663090Y-46531400D01*
X69736765Y-46771022D01*
X69807666Y-46925042D01*
X69841800Y-46956134D01*
X69936918Y-46898964D01*
X70094139Y-46755047D01*
X70164907Y-46680967D01*
X70418160Y-46405800D01*
X70155896Y-46976953D01*
X69893631Y-47548107D01*
X70100522Y-47793983D01*
X70298080Y-48007586D01*
X70540779Y-48243076D01*
X70616340Y-48311100D01*
X70925267Y-48582342D01*
X70925267Y-48253743D01*
X70955010Y-47992762D01*
X71028010Y-47780656D01*
X71042089Y-47758139D01*
X71158038Y-47549557D01*
X71206982Y-47421800D01*
X71223207Y-47425614D01*
X71228478Y-47571392D01*
X71222571Y-47832109D01*
X71212291Y-48056800D01*
X71202548Y-48434523D01*
X71217830Y-48667319D01*
X71253392Y-48749750D01*
X71304487Y-48676378D01*
X71366369Y-48441764D01*
X71398524Y-48270199D01*
X71439296Y-48066008D01*
X71475736Y-48009987D01*
X71525251Y-48082376D01*
X71538566Y-48111213D01*
X71557590Y-48216805D01*
X73558145Y-48216805D01*
X73531945Y-48045336D01*
X73456374Y-47804543D01*
X73365792Y-47567351D01*
X73189476Y-47120234D01*
X73787228Y-45916351D01*
X74046394Y-45412936D01*
X74336456Y-44879557D01*
X74625630Y-44372960D01*
X74882133Y-43949889D01*
X74933324Y-43870122D01*
X75481669Y-43027777D01*
X75577025Y-43404455D01*
X75655571Y-43684842D01*
X75736079Y-43928190D01*
X75757919Y-43983871D01*
X75843455Y-44186608D01*
X76077161Y-43962704D01*
X76271299Y-43792504D01*
X76364698Y-43755451D01*
X76363432Y-43853297D01*
X76299620Y-44026815D01*
X76226971Y-44246315D01*
X76240419Y-44417024D01*
X76303311Y-44563457D01*
X76443793Y-44789564D01*
X76588205Y-44957663D01*
X76678138Y-45026278D01*
X76754196Y-45023909D01*
X76846119Y-44928151D01*
X76983648Y-44716595D01*
X77047897Y-44611317D01*
X77216896Y-44354180D01*
X77393110Y-44119237D01*
X77555562Y-43928926D01*
X77683275Y-43805690D01*
X77755273Y-43771967D01*
X77750579Y-43850199D01*
X77744791Y-43865800D01*
X77572689Y-44324164D01*
X77459251Y-44671757D01*
X77394692Y-44952687D01*
X77369227Y-45211066D01*
X77373072Y-45491004D01*
X77375241Y-45531748D01*
X77417721Y-45919614D01*
X77498290Y-46173551D01*
X77565972Y-46272581D01*
X77736481Y-46422229D01*
X77838385Y-46421468D01*
X77867934Y-46294982D01*
X77916572Y-46103364D01*
X77982402Y-45985287D01*
X78070472Y-45883417D01*
X78117072Y-45926004D01*
X78145659Y-46032605D01*
X78187640Y-46241519D01*
X78235502Y-46525755D01*
X78252471Y-46638634D01*
X78300892Y-46872690D01*
X78359103Y-47017695D01*
X78388403Y-47040800D01*
X78476160Y-47107239D01*
X78601438Y-47273426D01*
X78644965Y-47343596D01*
X78784831Y-47526046D01*
X78888269Y-47544659D01*
X78950471Y-47401950D01*
X78967304Y-47174856D01*
X78981937Y-47004177D01*
X79016017Y-46980745D01*
X79058759Y-47085194D01*
X79099381Y-47298158D01*
X79115728Y-47441437D01*
X79189342Y-47787789D01*
X79354945Y-48050844D01*
X79387521Y-48085546D01*
X79622015Y-48325958D01*
X79722716Y-47926037D01*
X79774093Y-47631473D01*
X79775673Y-47309764D01*
X79727648Y-46894380D01*
X79725704Y-46881500D01*
X79605861Y-46313635D01*
X79423027Y-45852422D01*
X79150870Y-45439196D01*
X78997415Y-45258985D01*
X78822845Y-45050549D01*
X78762809Y-44945256D01*
X78802525Y-44936926D01*
X78927213Y-45019379D01*
X79122093Y-45186433D01*
X79346016Y-45404758D01*
X79584913Y-45640224D01*
X79731093Y-45758208D01*
X79801663Y-45770119D01*
X79815267Y-45717667D01*
X79769209Y-45554096D01*
X79653564Y-45314243D01*
X79502125Y-45055938D01*
X79348684Y-44837013D01*
X79230879Y-44717583D01*
X79143303Y-44611376D01*
X79137934Y-44581916D01*
X79202152Y-44570201D01*
X79363645Y-44633232D01*
X79444229Y-44675729D01*
X79642234Y-44774020D01*
X79770440Y-44813655D01*
X79788764Y-44809525D01*
X79798191Y-44694275D01*
X79741499Y-44472383D01*
X79636706Y-44184157D01*
X79501832Y-43869907D01*
X79354896Y-43569942D01*
X79213916Y-43324570D01*
X79096913Y-43174099D01*
X79045185Y-43146134D01*
X78970773Y-43081466D01*
X78968600Y-43061467D01*
X79036752Y-42990158D01*
X79227048Y-43003578D01*
X79518247Y-43096373D01*
X79889109Y-43263190D01*
X80004618Y-43322585D01*
X80176173Y-43390886D01*
X80254519Y-43346938D01*
X80255641Y-43171118D01*
X80234579Y-43040300D01*
X80222010Y-42954870D01*
X74396600Y-42954870D01*
X74334239Y-43086504D01*
X74311559Y-43104032D01*
X74206948Y-43215340D01*
X74040209Y-43446358D01*
X73829642Y-43767781D01*
X73593547Y-44150307D01*
X73350222Y-44564630D01*
X73117968Y-44981447D01*
X72999600Y-45204955D01*
X72823170Y-45536288D01*
X72671778Y-45803345D01*
X72563524Y-45975255D01*
X72519673Y-46023568D01*
X72443788Y-45959220D01*
X72323765Y-45797208D01*
X72283873Y-45734840D01*
X72057271Y-45440191D01*
X71727296Y-45101021D01*
X71337818Y-44756430D01*
X70932710Y-44445518D01*
X70593155Y-44228018D01*
X70089309Y-43944076D01*
X70528455Y-43788214D01*
X70793112Y-43693772D01*
X70999520Y-43619207D01*
X71073434Y-43591851D01*
X71158064Y-43626542D01*
X71180564Y-43750908D01*
X71210957Y-43996344D01*
X71291130Y-44088946D01*
X71410805Y-44022832D01*
X71484478Y-43924954D01*
X71656920Y-43708344D01*
X71884090Y-43483243D01*
X71941267Y-43434822D01*
X72084920Y-43327970D01*
X72129481Y-43316608D01*
X72099644Y-43360780D01*
X71962515Y-43556534D01*
X71828025Y-43791235D01*
X71694363Y-44055336D01*
X72135315Y-43902088D01*
X72451975Y-43802999D01*
X72759596Y-43723953D01*
X72883820Y-43699516D01*
X73126060Y-43620953D01*
X73318815Y-43446817D01*
X73408043Y-43322782D01*
X73611622Y-43067416D01*
X73678492Y-43003162D01*
X67369267Y-43003162D01*
X67311661Y-43065377D01*
X67154435Y-43024301D01*
X66920980Y-42893016D01*
X66634687Y-42684602D01*
X66328823Y-42421306D01*
X66022132Y-42148981D01*
X65796437Y-41981248D01*
X65618955Y-41897288D01*
X65470409Y-41876134D01*
X65207763Y-41820264D01*
X64933959Y-41678839D01*
X64913934Y-41664467D01*
X64762529Y-41532564D01*
X64744526Y-41464763D01*
X64839248Y-41454935D01*
X65026015Y-41496946D01*
X65284149Y-41584664D01*
X65592973Y-41711958D01*
X65931808Y-41872697D01*
X66279975Y-42060747D01*
X66310934Y-42078728D01*
X66587223Y-42258913D01*
X66866279Y-42471370D01*
X67112959Y-42685400D01*
X67292119Y-42870308D01*
X67368616Y-42995396D01*
X67369267Y-43003162D01*
X73678492Y-43003162D01*
X73847535Y-42840733D01*
X73904824Y-42796973D01*
X74184934Y-42598574D01*
X74034815Y-42830021D01*
X73939178Y-42988139D01*
X73939270Y-43050472D01*
X74035903Y-43061465D01*
X74039049Y-43061467D01*
X74227319Y-43008550D01*
X74295001Y-42959867D01*
X74380156Y-42904747D01*
X74396600Y-42954870D01*
X80222010Y-42954870D01*
X80201204Y-42813463D01*
X80195276Y-42668619D01*
X80201621Y-42647182D01*
X80227431Y-42642582D01*
X80262226Y-42701527D01*
X80319163Y-42855342D01*
X80411397Y-43135352D01*
X80427144Y-43184137D01*
X80487608Y-43340429D01*
X80573330Y-43464949D01*
X80715480Y-43582966D01*
X80945229Y-43719745D01*
X81293747Y-43900553D01*
X81339267Y-43923507D01*
X81853630Y-44161621D01*
X82245956Y-44297003D01*
X82463758Y-44330004D01*
X82713053Y-44362577D01*
X82833204Y-44465273D01*
X82839182Y-44479634D01*
X82950220Y-44644227D01*
X83069358Y-44751834D01*
X83223668Y-44874918D01*
X83446989Y-45068747D01*
X83646434Y-45250253D01*
X83850845Y-45429162D01*
X83998298Y-45536609D01*
X84056452Y-45549553D01*
X84043603Y-44994282D01*
X83908149Y-44377367D01*
X83665427Y-43735375D01*
X83330777Y-43104871D01*
X82919539Y-42522421D01*
X82666426Y-42235967D01*
X82491198Y-42046029D01*
X82385482Y-41915629D01*
X82370294Y-41876134D01*
X82511015Y-41924892D01*
X82739969Y-42053926D01*
X83013445Y-42237376D01*
X83141541Y-42332440D01*
X83373152Y-42489019D01*
X83491152Y-42522217D01*
X83490342Y-42436796D01*
X83365522Y-42237517D01*
X83316037Y-42172641D01*
X83094324Y-41952709D01*
X82937887Y-41833800D01*
X73295934Y-41833800D01*
X73253600Y-41876134D01*
X73211267Y-41833800D01*
X73253600Y-41791467D01*
X73295934Y-41833800D01*
X82937887Y-41833800D01*
X82805676Y-41733305D01*
X73168934Y-41733305D01*
X72406934Y-41842497D01*
X71973646Y-41904463D01*
X71518506Y-41969358D01*
X71127849Y-42024876D01*
X71066695Y-42033539D01*
X70770318Y-42081269D01*
X70545209Y-42128295D01*
X70439295Y-42164576D01*
X70438751Y-42165095D01*
X70319491Y-42207621D01*
X70254989Y-42211190D01*
X70232101Y-42161872D01*
X70337532Y-42027620D01*
X70403165Y-41965842D01*
X70011225Y-41965842D01*
X69974674Y-42099549D01*
X69889222Y-42193355D01*
X69634533Y-42338150D01*
X69316600Y-42406042D01*
X69084133Y-42428881D01*
X68937345Y-42448227D01*
X68914434Y-42454008D01*
X68893753Y-42405525D01*
X68893267Y-42388855D01*
X68944009Y-42276028D01*
X69068039Y-42106097D01*
X69086679Y-42084055D01*
X69290864Y-41915692D01*
X69551851Y-41860081D01*
X69603146Y-41859200D01*
X69887460Y-41885816D01*
X70011225Y-41965842D01*
X70403165Y-41965842D01*
X70498480Y-41876126D01*
X70704881Y-41706478D01*
X70857750Y-41602272D01*
X70916169Y-41584813D01*
X70901359Y-41668737D01*
X70856123Y-41725145D01*
X70767680Y-41852627D01*
X70755934Y-41898772D01*
X70816400Y-41942920D01*
X70975253Y-41896526D01*
X71198676Y-41774859D01*
X71452853Y-41593191D01*
X71478318Y-41572592D01*
X71692153Y-41414204D01*
X71907994Y-41279987D01*
X72093470Y-41185485D01*
X72216211Y-41146245D01*
X72243850Y-41177809D01*
X72218235Y-41217270D01*
X72124518Y-41383234D01*
X72070271Y-41524658D01*
X72043558Y-41665506D01*
X72115478Y-41686583D01*
X72195271Y-41664466D01*
X72391267Y-41641804D01*
X72664435Y-41654568D01*
X72775129Y-41669360D01*
X73168934Y-41733305D01*
X82805676Y-41733305D01*
X82772084Y-41707772D01*
X82402448Y-41471234D01*
X82038547Y-41276503D01*
X81733513Y-41156981D01*
X81680385Y-41144257D01*
X81483890Y-41086082D01*
X81375070Y-41018896D01*
X81374842Y-41018531D01*
X81265207Y-40964430D01*
X81092905Y-40944800D01*
X80827468Y-40918472D01*
X80611068Y-40869702D01*
X80367922Y-40798253D01*
X80072917Y-40715286D01*
X80003955Y-40696427D01*
X79642310Y-40598251D01*
X79813132Y-40462617D01*
X78898181Y-40462617D01*
X78328673Y-40409436D01*
X78037781Y-40378552D01*
X77822437Y-40348692D01*
X77729227Y-40326315D01*
X77729213Y-40326301D01*
X77743916Y-40239418D01*
X77816708Y-40057631D01*
X77853170Y-39979926D01*
X78007079Y-39663504D01*
X78111808Y-40013057D01*
X78195084Y-40236155D01*
X78287734Y-40329961D01*
X78402068Y-40336204D01*
X78523413Y-40289183D01*
X78586445Y-40162093D01*
X78614055Y-39941376D01*
X78610877Y-39646291D01*
X78569798Y-39377240D01*
X78554959Y-39327543D01*
X78507520Y-39157399D01*
X78510085Y-39082317D01*
X78511658Y-39082134D01*
X78579038Y-39157503D01*
X78662719Y-39352553D01*
X78746937Y-39620693D01*
X78815930Y-39915334D01*
X78838301Y-40047542D01*
X78898181Y-40462617D01*
X79813132Y-40462617D01*
X79877269Y-40411692D01*
X80236257Y-40159316D01*
X80519383Y-40029566D01*
X80625179Y-40013467D01*
X80712888Y-39947105D01*
X80705597Y-39757700D01*
X80607046Y-39459778D01*
X80420974Y-39067863D01*
X80346125Y-38929590D01*
X80207015Y-38663862D01*
X80115877Y-38459539D01*
X80090416Y-38356828D01*
X80092395Y-38353450D01*
X80168596Y-38383785D01*
X80307118Y-38526242D01*
X80483002Y-38747835D01*
X80671291Y-39015578D01*
X80847024Y-39296487D01*
X80952966Y-39490765D01*
X81084719Y-39738421D01*
X81176463Y-39856814D01*
X81256168Y-39871767D01*
X81322803Y-39832223D01*
X81447401Y-39739587D01*
X81488545Y-39711758D01*
X81475663Y-39634675D01*
X81404372Y-39462588D01*
X81299700Y-39247845D01*
X81186675Y-39042790D01*
X81116652Y-38933967D01*
X81040575Y-38789130D01*
X81077252Y-38743467D01*
X81187310Y-38803534D01*
X81362043Y-38956072D01*
X81562551Y-39159589D01*
X81749935Y-39372590D01*
X81885298Y-39553583D01*
X81930499Y-39653634D01*
X81981423Y-39752087D01*
X82010141Y-39759467D01*
X82164008Y-39740049D01*
X82389873Y-39691634D01*
X82631893Y-39628978D01*
X82834228Y-39566837D01*
X82941036Y-39519967D01*
X82946268Y-39512092D01*
X82895621Y-39428727D01*
X82761668Y-39247569D01*
X82568989Y-39001342D01*
X82474488Y-38883961D01*
X82213636Y-38538043D01*
X82075092Y-38294587D01*
X82056869Y-38167983D01*
X82109121Y-38100348D01*
X82195760Y-38146978D01*
X82316308Y-38281489D01*
X82492481Y-38510900D01*
X82689504Y-38790210D01*
X82756759Y-38891482D01*
X82900003Y-39096983D01*
X83009706Y-39227253D01*
X83044851Y-39251315D01*
X83063232Y-39178867D01*
X83041312Y-38998519D01*
X83028363Y-38936344D01*
X82988347Y-38728406D01*
X82978031Y-38606980D01*
X82981202Y-38597310D01*
X83076860Y-38608322D01*
X83255108Y-38699471D01*
X83469282Y-38841496D01*
X83672721Y-39005135D01*
X83749145Y-39078875D01*
X83922630Y-39234736D01*
X84099644Y-39311360D01*
X84352281Y-39335272D01*
X84448387Y-39336133D01*
X84901159Y-39336133D01*
X84614085Y-39084079D01*
X84436788Y-38953040D01*
X84170674Y-38784552D01*
X83855783Y-38600683D01*
X83532154Y-38423501D01*
X83239826Y-38275073D01*
X83018839Y-38177466D01*
X82920736Y-38150800D01*
X82799030Y-38118667D01*
X82601548Y-38040331D01*
X82579729Y-38030611D01*
X82305210Y-37931172D01*
X81919888Y-37822515D01*
X81480691Y-37718645D01*
X81044551Y-37633567D01*
X80831267Y-37600494D01*
X80536211Y-37593015D01*
X80120791Y-37626337D01*
X79627070Y-37693386D01*
X79097111Y-37787089D01*
X78572974Y-37900373D01*
X78096722Y-38026165D01*
X77868931Y-38098637D01*
X77640033Y-38167365D01*
X77486079Y-38194696D01*
X77454628Y-38189050D01*
X77461706Y-38095653D01*
X77589250Y-37962665D01*
X77801390Y-37815553D01*
X78062255Y-37679783D01*
X78294854Y-37592516D01*
X78570805Y-37503137D01*
X78733181Y-37414304D01*
X78831528Y-37281119D01*
X78915392Y-37058680D01*
X78928721Y-37018094D01*
X79173000Y-36417140D01*
X79519681Y-35765087D01*
X79937048Y-35114211D01*
X80393387Y-34516787D01*
X80565870Y-34319634D01*
X80778281Y-34086800D01*
X80389804Y-34086800D01*
X80140348Y-34099881D01*
X79988161Y-34165313D01*
X79861684Y-34322378D01*
X79811426Y-34404300D01*
X79693720Y-34622117D01*
X79625939Y-34788153D01*
X79619619Y-34822774D01*
X79566965Y-34949331D01*
X79439988Y-35129634D01*
X79413366Y-35161440D01*
X79288244Y-35294719D01*
X79251263Y-35295892D01*
X79268751Y-35229800D01*
X79321766Y-35046447D01*
X79376588Y-34809060D01*
X79421403Y-34576926D01*
X79444400Y-34409331D01*
X79441552Y-34362487D01*
X79357647Y-34389435D01*
X79190380Y-34525436D01*
X78961419Y-34746718D01*
X78692432Y-35029509D01*
X78405088Y-35350038D01*
X78121055Y-35684532D01*
X77862000Y-36009220D01*
X77649591Y-36300330D01*
X77582670Y-36401847D01*
X77430371Y-36642560D01*
X77121213Y-35986970D01*
X76151029Y-35986970D01*
X76136607Y-36088551D01*
X75962063Y-36220052D01*
X75843863Y-36284088D01*
X75597257Y-36448325D01*
X75328361Y-36683800D01*
X75187696Y-36833366D01*
X74969145Y-37072721D01*
X74830687Y-37191035D01*
X74780552Y-37186245D01*
X74826971Y-37056290D01*
X74913881Y-36901967D01*
X75213999Y-36439997D01*
X75469099Y-36125215D01*
X75692256Y-35945751D01*
X75896542Y-35889737D01*
X76008465Y-35908149D01*
X76151029Y-35986970D01*
X77121213Y-35986970D01*
X77067927Y-35873974D01*
X76861946Y-35447561D01*
X76706001Y-35154597D01*
X76584715Y-34972341D01*
X76482711Y-34878053D01*
X76384614Y-34848994D01*
X76374707Y-34848800D01*
X76248875Y-34790599D01*
X76072693Y-34644389D01*
X76003589Y-34573633D01*
X75843537Y-34408070D01*
X75749106Y-34355295D01*
X75673337Y-34401605D01*
X75623783Y-34462816D01*
X75524497Y-34634125D01*
X75497267Y-34737982D01*
X75448612Y-34839888D01*
X75417264Y-34848800D01*
X75376615Y-34772272D01*
X75354398Y-34574373D01*
X75353764Y-34370923D01*
X75345349Y-34041418D01*
X75291694Y-33874931D01*
X75264434Y-33855868D01*
X75181800Y-33896820D01*
X75154864Y-34058578D01*
X75130737Y-34284614D01*
X75073970Y-34580927D01*
X75040546Y-34718315D01*
X74929965Y-35138164D01*
X74869113Y-34548982D01*
X74818702Y-34074373D01*
X74779256Y-33740968D01*
X74748941Y-33536467D01*
X73973267Y-33536467D01*
X73930934Y-33578800D01*
X73888600Y-33536467D01*
X73930934Y-33494134D01*
X73973267Y-33536467D01*
X74748941Y-33536467D01*
X74746694Y-33521311D01*
X74716930Y-33387941D01*
X74685884Y-33313401D01*
X74685217Y-33312314D01*
X74577501Y-33268143D01*
X74360158Y-33248392D01*
X74210185Y-33250955D01*
X73931189Y-33250171D01*
X73773151Y-33203053D01*
X73706573Y-33129776D01*
X73598972Y-33034845D01*
X73449741Y-32986237D01*
X73328628Y-32997633D01*
X73328628Y-32997633D01*
G37*
X73328628Y-32997633D02*
X73297954Y-33049634D01*
X73316939Y-33166889D01*
X73361353Y-33376676D01*
X73373704Y-33430634D01*
X73406446Y-33660246D01*
X73366572Y-33742168D01*
X73257464Y-33672629D01*
X73207207Y-33616242D01*
X73072797Y-33511075D01*
X72857776Y-33388911D01*
X72634222Y-33286428D01*
X72474210Y-33240308D01*
X72468138Y-33240134D01*
X72479027Y-33293394D01*
X72549508Y-33388300D01*
X72732466Y-33649567D01*
X72948844Y-34032809D01*
X73179524Y-34499024D01*
X73405386Y-35009211D01*
X73607313Y-35524369D01*
X73636490Y-35605690D01*
X73783690Y-36041556D01*
X73922569Y-36488736D01*
X74049651Y-36930597D01*
X74161458Y-37350506D01*
X74254515Y-37731831D01*
X74325344Y-38057938D01*
X74370468Y-38312194D01*
X74386410Y-38477968D01*
X74369693Y-38538626D01*
X74316841Y-38477535D01*
X74224376Y-38278063D01*
X74162499Y-38122011D01*
X74030542Y-37817885D01*
X73880422Y-37586894D01*
X73674182Y-37389102D01*
X73373867Y-37184574D01*
X73139928Y-37046151D01*
X72830640Y-36887617D01*
X72449404Y-36720453D01*
X72040281Y-36560807D01*
X71647330Y-36424826D01*
X71314612Y-36328660D01*
X71086188Y-36288456D01*
X71071678Y-36288134D01*
X70838854Y-36259541D01*
X70610561Y-36199133D01*
X70386064Y-36154823D01*
X70072449Y-36133183D01*
X69828097Y-36135633D01*
X69300940Y-36161134D01*
X69692246Y-36436300D01*
X69961538Y-36618631D01*
X70110036Y-36700000D01*
X70149019Y-36685420D01*
X70120934Y-36626800D01*
X70123905Y-36548618D01*
X70151705Y-36542134D01*
X70245591Y-36601149D01*
X70413690Y-36756267D01*
X70620512Y-36974594D01*
X70631281Y-36986634D01*
X71027759Y-37431134D01*
X70974750Y-37092467D01*
X70921740Y-36753800D01*
X71198670Y-37228059D01*
X71404086Y-37568997D01*
X71562849Y-37796358D01*
X71706760Y-37946626D01*
X71867623Y-38056287D01*
X71965601Y-38107916D01*
X72167389Y-38184761D01*
X72273959Y-38157174D01*
X72286103Y-38140819D01*
X72351724Y-38120988D01*
X72403383Y-38224280D01*
X72475478Y-38366789D01*
X72529921Y-38404800D01*
X72615331Y-38445513D01*
X72811680Y-38554381D01*
X73085273Y-38711503D01*
X73402413Y-38896973D01*
X73729405Y-39090888D01*
X74032554Y-39273346D01*
X74278164Y-39424442D01*
X74432538Y-39524272D01*
X74461919Y-39546003D01*
X74454008Y-39629643D01*
X74413145Y-39759534D01*
X74364525Y-39854889D01*
X74280254Y-39914228D01*
X74123188Y-39947611D01*
X73856185Y-39965097D01*
X73628160Y-39972133D01*
X72933699Y-40037147D01*
X72406934Y-40175574D01*
X72092448Y-40286070D01*
X71803438Y-40381064D01*
X71644934Y-40428143D01*
X71428609Y-40501195D01*
X71125119Y-40621618D01*
X70799333Y-40762224D01*
X70516123Y-40895827D01*
X70459600Y-40924933D01*
X70407064Y-40941365D01*
X70473051Y-40876487D01*
X70637730Y-40746620D01*
X70881270Y-40568085D01*
X70967600Y-40506871D01*
X71207341Y-40351657D01*
X71552771Y-40145440D01*
X71958852Y-39914387D01*
X72380547Y-39684663D01*
X72406934Y-39670660D01*
X72840042Y-39436383D01*
X73121456Y-39265942D01*
X73251623Y-39148834D01*
X73230990Y-39074557D01*
X73060007Y-39032608D01*
X72739121Y-39012486D01*
X72435296Y-39005906D01*
X71870992Y-38997467D01*
X71525129Y-39390387D01*
X71336367Y-39596758D01*
X71230909Y-39684257D01*
X71186305Y-39666264D01*
X71179267Y-39596488D01*
X71220166Y-39364643D01*
X71270794Y-39238649D01*
X71327115Y-39089772D01*
X71322071Y-39027382D01*
X71209819Y-39012828D01*
X70992453Y-39043551D01*
X70723478Y-39105551D01*
X70456398Y-39184823D01*
X70244716Y-39267368D01*
X70143881Y-39335713D01*
X70010058Y-39426090D01*
X69754648Y-39436577D01*
X69731869Y-39434542D01*
X69489647Y-39435588D01*
X69401576Y-39498928D01*
X69401267Y-39504945D01*
X69369583Y-39648084D01*
X69292626Y-39857647D01*
X69285766Y-39873671D01*
X69176802Y-40134192D01*
X69057811Y-40430765D01*
X69038944Y-40479134D01*
X68910359Y-40810729D01*
X68831041Y-41004252D01*
X68787202Y-41078785D01*
X68765052Y-41053411D01*
X68750803Y-40947211D01*
X68744287Y-40886910D01*
X68751312Y-40647873D01*
X68802967Y-40339900D01*
X68845700Y-40174011D01*
X68911642Y-39922253D01*
X68941943Y-39743729D01*
X68936781Y-39690092D01*
X68872917Y-39723189D01*
X68775281Y-39887046D01*
X68655622Y-40149320D01*
X68525687Y-40477671D01*
X68397223Y-40839756D01*
X68281979Y-41203235D01*
X68191702Y-41535766D01*
X68138139Y-41805007D01*
X68128574Y-41915089D01*
X68119110Y-42034894D01*
X68071363Y-42012739D01*
X68003738Y-41926410D01*
X67861067Y-41688906D01*
X67752034Y-41386506D01*
X67673278Y-40997720D01*
X67621436Y-40501063D01*
X67593146Y-39875045D01*
X67585167Y-39251467D01*
X67589336Y-38566924D01*
X67608569Y-38021912D01*
X67646756Y-37586995D01*
X67707789Y-37232739D01*
X67795558Y-36929710D01*
X67913957Y-36648472D01*
X67934954Y-36605634D01*
X68002581Y-36445985D01*
X67988496Y-36397089D01*
X67886370Y-36463460D01*
X67689875Y-36649615D01*
X67392680Y-36960068D01*
X67302948Y-37056508D01*
X66686295Y-37721968D01*
X66902207Y-38148051D01*
X67005504Y-38377177D01*
X67050714Y-38531850D01*
X67037024Y-38574134D01*
X66921014Y-38512488D01*
X66903228Y-38488865D01*
X66796752Y-38394098D01*
X66609047Y-38278842D01*
X66592170Y-38269993D01*
X66362340Y-38184853D01*
X66246977Y-38218971D01*
X66249992Y-38363343D01*
X66375298Y-38608962D01*
X66417366Y-38672345D01*
X66603698Y-38965985D01*
X66809719Y-39324790D01*
X67009446Y-39699571D01*
X67176891Y-40041139D01*
X67286070Y-40300304D01*
X67300508Y-40344087D01*
X67327424Y-40458496D01*
X67304640Y-40473790D01*
X67220993Y-40378144D01*
X67065318Y-40159735D01*
X66908405Y-39928800D01*
X66664945Y-39596507D01*
X66378389Y-39246125D01*
X66207429Y-39056328D01*
X65975291Y-38829402D01*
X65724402Y-38610703D01*
X65479202Y-38417371D01*
X65264127Y-38266546D01*
X65103619Y-38175368D01*
X65022114Y-38160977D01*
X65043923Y-38240304D01*
X65098538Y-38393243D01*
X65120893Y-38515471D01*
X65154960Y-38730299D01*
X65206473Y-38986197D01*
X65206504Y-38986333D01*
X65235792Y-39177518D01*
X65200321Y-39241192D01*
X65155698Y-39234855D01*
X65038476Y-39134600D01*
X64956267Y-38993245D01*
X64847446Y-38752369D01*
X64699744Y-38454548D01*
X64533527Y-38137247D01*
X64369156Y-37837930D01*
X64226996Y-37594061D01*
X64127409Y-37443104D01*
X64097288Y-37412918D01*
X64060189Y-37472985D01*
X64048725Y-37653330D01*
X64054858Y-37780388D01*
X64060840Y-38027775D01*
X64025267Y-38121334D01*
X63991985Y-38114267D01*
X63903230Y-37984905D01*
X63897934Y-37944920D01*
X63838350Y-37832577D01*
X63688111Y-37656982D01*
X63489988Y-37459149D01*
X63286750Y-37280096D01*
X63121166Y-37160835D01*
X63053159Y-37134800D01*
X62989325Y-37212372D01*
X62970069Y-37428024D01*
X62996556Y-37756164D01*
X63018250Y-37901368D01*
X63064725Y-38079028D01*
X63159869Y-38208702D01*
X63344095Y-38331116D01*
X63546485Y-38433708D01*
X64024934Y-38665148D01*
X63538100Y-38625758D01*
X63247084Y-38612128D01*
X63091698Y-38651435D01*
X63048325Y-38774961D01*
X63093349Y-39013990D01*
X63134204Y-39160768D01*
X63174103Y-39423430D01*
X63125001Y-39560973D01*
X63095507Y-39653926D01*
X63204222Y-39732374D01*
X63274898Y-39760331D01*
X63532428Y-39854272D01*
X63728600Y-39925774D01*
X63970289Y-39999266D01*
X64214463Y-40057020D01*
X64418079Y-40117313D01*
X64536780Y-40189425D01*
X64539369Y-40193213D01*
X64492131Y-40227042D01*
X64317725Y-40234321D01*
X64055849Y-40217312D01*
X63746198Y-40178278D01*
X63495767Y-40133737D01*
X63345652Y-40135039D01*
X63314345Y-40210573D01*
X63383086Y-40335841D01*
X63533112Y-40486340D01*
X63745661Y-40637573D01*
X63968855Y-40751525D01*
X64248880Y-40845031D01*
X64583608Y-40924697D01*
X64702267Y-40945208D01*
X64942655Y-40982304D01*
X65023795Y-41001902D01*
X64954011Y-41010884D01*
X64786934Y-41015217D01*
X64469360Y-41002085D01*
X64134458Y-40960887D01*
X64091876Y-40953111D01*
X63873869Y-40916774D01*
X63787128Y-40928681D01*
X63797928Y-40998979D01*
X63816709Y-41035899D01*
X63889616Y-41203968D01*
X63855924Y-41273076D01*
X63763122Y-41283467D01*
X63604736Y-41333178D01*
X63413153Y-41452709D01*
X63413037Y-41452800D01*
X63233337Y-41571343D01*
X63098862Y-41622104D01*
X63096941Y-41622133D01*
X62974170Y-41679097D01*
X62812828Y-41817414D01*
X62801463Y-41829334D01*
X62680011Y-41968297D01*
X62673241Y-42023081D01*
X62765538Y-42028581D01*
X63061521Y-42054714D01*
X63404150Y-42146623D01*
X63754911Y-42285520D01*
X64075293Y-42452614D01*
X64326783Y-42629116D01*
X64470869Y-42796237D01*
X64490600Y-42870216D01*
X64465867Y-42951474D01*
X64368376Y-42896097D01*
X64156478Y-42785292D01*
X63825711Y-42685335D01*
X63426543Y-42607187D01*
X63009439Y-42561812D01*
X62797267Y-42554797D01*
X62246934Y-42554118D01*
X61611934Y-43195914D01*
X60976934Y-43837709D01*
X61823600Y-43731823D01*
X61552429Y-43856545D01*
X61142849Y-44081996D01*
X60699901Y-44402538D01*
X60249541Y-44788130D01*
X60033128Y-44990603D01*
X59942876Y-45094050D01*
X59973373Y-45106040D01*
X60045600Y-45073390D01*
X60703836Y-44781387D01*
X61470638Y-44510429D01*
X62285274Y-44278258D01*
X63087010Y-44102620D01*
X63663533Y-44016371D01*
X63913212Y-43966971D01*
X64008553Y-43905072D01*
X63947198Y-43850701D01*
X63726784Y-43823885D01*
X63686267Y-43823467D01*
X63477659Y-43801346D01*
X63353768Y-43747469D01*
X63349135Y-43741282D01*
X63366219Y-43658910D01*
X63513153Y-43609462D01*
X63752887Y-43597264D01*
X64048369Y-43626642D01*
X64155881Y-43647070D01*
X64511011Y-43692413D01*
X64828759Y-43678358D01*
X65074562Y-43612881D01*
X65213862Y-43503960D01*
X65227944Y-43399660D01*
X65216070Y-43291946D01*
X65294265Y-43309627D01*
X65346517Y-43340892D01*
X65473792Y-43445791D01*
X65506600Y-43505166D01*
X65581601Y-43545978D01*
X65768257Y-43568139D01*
X65834504Y-43569467D01*
X66109803Y-43605654D01*
X66432402Y-43697348D01*
X66575338Y-43754136D01*
X66988267Y-43938805D01*
X66630432Y-44029303D01*
X66272597Y-44119800D01*
X66568982Y-44408863D01*
X66865368Y-44697925D01*
X66630484Y-44852805D01*
X66366408Y-44984668D01*
X66142045Y-44978224D01*
X65898440Y-44832867D01*
X65691498Y-44727435D01*
X65472322Y-44697509D01*
X65289503Y-44736961D01*
X65191633Y-44839663D01*
X65191899Y-44921965D01*
X65166034Y-45053788D01*
X64999868Y-45180433D01*
X64925449Y-45218112D01*
X64619684Y-45363921D01*
X64849233Y-45546194D01*
X65181293Y-45806243D01*
X65409915Y-45974691D01*
X65561233Y-46068955D01*
X65661378Y-46106455D01*
X65694309Y-46109467D01*
X65849362Y-46159052D01*
X65977252Y-46240325D01*
X66063053Y-46317576D01*
X66041825Y-46345783D01*
X65889481Y-46333229D01*
X65760600Y-46314846D01*
X65438352Y-46240150D01*
X65123149Y-46126636D01*
X65065473Y-46099321D01*
X64845736Y-45998918D01*
X64683040Y-45943773D01*
X64655495Y-45940134D01*
X64526748Y-45891578D01*
X64348978Y-45774407D01*
X64344370Y-45770800D01*
X64153968Y-45651338D01*
X63997894Y-45601467D01*
X63997588Y-45601467D01*
X63842080Y-45645631D01*
X63647379Y-45753333D01*
X63466226Y-45887385D01*
X63351360Y-46010600D01*
X63337179Y-46067134D01*
X63311909Y-46190805D01*
X63240361Y-46298202D01*
X63160055Y-46414531D01*
X63212355Y-46474158D01*
X63272576Y-46495535D01*
X63442145Y-46561821D01*
X63688911Y-46671442D01*
X63813267Y-46730133D01*
X64029818Y-46838671D01*
X64107391Y-46897325D01*
X64061027Y-46926580D01*
X63967390Y-46940016D01*
X63755356Y-46931050D01*
X63466496Y-46879081D01*
X63300775Y-46835643D01*
X63044536Y-46769779D01*
X62856166Y-46740131D01*
X62795588Y-46745505D01*
X62727160Y-46833852D01*
X62617212Y-47013776D01*
X62499347Y-47225212D01*
X62407168Y-47408095D01*
X62373934Y-47499199D01*
X62443940Y-47542665D01*
X62564434Y-47584532D01*
X62670314Y-47625418D01*
X62655340Y-47670770D01*
X62502964Y-47745118D01*
X62437434Y-47772796D01*
X62198534Y-47926751D01*
X62098761Y-48148365D01*
X62112286Y-48423769D01*
X62097453Y-48537205D01*
X62046387Y-48760815D01*
X61983508Y-48997576D01*
X61907708Y-49326299D01*
X61899783Y-49520613D01*
X61957745Y-49573132D01*
X62079604Y-49476470D01*
X62104558Y-49447081D01*
X62238597Y-49308591D01*
X62436097Y-49152443D01*
X62727775Y-48956115D01*
X63043076Y-48758972D01*
X63283102Y-48620655D01*
X63405239Y-48581985D01*
X63429747Y-48644694D01*
X63385469Y-48788209D01*
X63337266Y-48963698D01*
X63343329Y-49054417D01*
X63416292Y-49014877D01*
X63586786Y-48876772D01*
X63831546Y-48660208D01*
X64127308Y-48385291D01*
X64220739Y-48296136D01*
X64995315Y-47624701D01*
X65783128Y-47079831D01*
X66559754Y-46677809D01*
X66779675Y-46590164D01*
X67059134Y-46494636D01*
X67373135Y-46399217D01*
X67678085Y-46315543D01*
X67930392Y-46255252D01*
X68086460Y-46229979D01*
X68114528Y-46233838D01*
X68146071Y-46351957D01*
X68139780Y-46611971D01*
X68095185Y-47023277D01*
X68063616Y-47252467D01*
X67961748Y-47991865D01*
X67887975Y-48618168D01*
X67838254Y-49184535D01*
X67808541Y-49744125D01*
X67794789Y-50350098D01*
X67792492Y-50816035D01*
X67800993Y-51399604D01*
X67824687Y-52043677D01*
X67860981Y-52713917D01*
X67907283Y-53375989D01*
X67961001Y-53995558D01*
X68019542Y-54538288D01*
X68080315Y-54969844D01*
X68122401Y-55185728D01*
X68160962Y-55396746D01*
X68163684Y-55525506D01*
X68158163Y-55537015D01*
X68155318Y-55634071D01*
X68192235Y-55835114D01*
X68219243Y-55943090D01*
X68285817Y-56197217D01*
X68334448Y-56395114D01*
X68343963Y-56438470D01*
X68413492Y-56751494D01*
X68514182Y-57165310D01*
X68631014Y-57621950D01*
X68748967Y-58063446D01*
X68853024Y-58431830D01*
X68901563Y-58590617D01*
X68957685Y-58787891D01*
X68999381Y-59000517D01*
X69028669Y-59256867D01*
X69047566Y-59585316D01*
X69058091Y-60014237D01*
X69062259Y-60572006D01*
X69062600Y-60855450D01*
X69062600Y-62619467D01*
X70332600Y-62619467D01*
X70774561Y-62615300D01*
X71149629Y-62603820D01*
X71428541Y-62586554D01*
X71582033Y-62565030D01*
X71602600Y-62553146D01*
X71569652Y-62455111D01*
X71479514Y-62233977D01*
X71345250Y-61920719D01*
X71179923Y-61546311D01*
X71147348Y-61473646D01*
X70884598Y-60882834D01*
X70685249Y-60411359D01*
X70540588Y-60025344D01*
X70441903Y-59690914D01*
X70380484Y-59374194D01*
X70347617Y-59041309D01*
X70334591Y-58658385D01*
X70332600Y-58305592D01*
X70340076Y-57792824D01*
X70365010Y-57294458D01*
X70411160Y-56787698D01*
X70482284Y-56249748D01*
X70582143Y-55657813D01*
X70714494Y-54989096D01*
X70883095Y-54220801D01*
X71091707Y-53330132D01*
X71282568Y-52544134D01*
X71444286Y-51917389D01*
X71616738Y-51304806D01*
X71792298Y-50728713D01*
X71963337Y-50211436D01*
X72122229Y-49775302D01*
X72261346Y-49442639D01*
X72373060Y-49235773D01*
X72432845Y-49177052D01*
X72551345Y-49196710D01*
X72764806Y-49278123D01*
X72947752Y-49364312D01*
X73262549Y-49514230D01*
X73456796Y-49573064D01*
X73538419Y-49528639D01*
X73515347Y-49368779D01*
X73395505Y-49081310D01*
X73283490Y-48848689D01*
X73132491Y-48514685D01*
X73074389Y-48316336D01*
X73108971Y-48255476D01*
X73236021Y-48333940D01*
X73333136Y-48424972D01*
X73476816Y-48562808D01*
X73538981Y-48585563D01*
X73557476Y-48498265D01*
X73559965Y-48455118D01*
X73561845Y-48241025D01*
X73558145Y-48216805D01*
X71557590Y-48216805D01*
X71538627Y-48387487D01*
X71476179Y-48644851D01*
X71364744Y-49010489D01*
X71198822Y-49505994D01*
X71139560Y-49677546D01*
X70967147Y-50185213D01*
X70780540Y-50753472D01*
X70590003Y-51349172D01*
X70405801Y-51939162D01*
X70238199Y-52490289D01*
X70097462Y-52969401D01*
X69993855Y-53343346D01*
X69950490Y-53517800D01*
X69866505Y-53893061D01*
X69812747Y-54146238D01*
X69780280Y-54319988D01*
X69773130Y-54364467D01*
X69739155Y-54526303D01*
X69673649Y-54796608D01*
X69589960Y-55120572D01*
X69578650Y-55162988D01*
X69504467Y-55473464D01*
X69461403Y-55722480D01*
X69457082Y-55863845D01*
X69461175Y-55874570D01*
X69455908Y-55916266D01*
X69417628Y-55898579D01*
X69339374Y-55780638D01*
X69280577Y-55576156D01*
X69279223Y-55567997D01*
X69249129Y-55381826D01*
X69198737Y-55070363D01*
X69134820Y-54675468D01*
X69064154Y-54239004D01*
X69057050Y-54195134D01*
X68978379Y-53588544D01*
X68914278Y-52852346D01*
X68865760Y-52025721D01*
X68833835Y-51147847D01*
X68819518Y-50257908D01*
X68823819Y-49395083D01*
X68847751Y-48598553D01*
X68892325Y-47907500D01*
X68894113Y-47887467D01*
X68950603Y-47265222D01*
X68995157Y-46791521D01*
X69030537Y-46446211D01*
X69059504Y-46209143D01*
X69084819Y-46060165D01*
X69109246Y-45979126D01*
X69135545Y-45945876D01*
X69161005Y-45940134D01*
X69388686Y-46020762D01*
X69566632Y-46258090D01*
X69663090Y-46531400D01*
X69736765Y-46771022D01*
X69807666Y-46925042D01*
X69841800Y-46956134D01*
X69936918Y-46898964D01*
X70094139Y-46755047D01*
X70164907Y-46680967D01*
X70418160Y-46405800D01*
X70155896Y-46976953D01*
X69893631Y-47548107D01*
X70100522Y-47793983D01*
X70298080Y-48007586D01*
X70540779Y-48243076D01*
X70616340Y-48311100D01*
X70925267Y-48582342D01*
X70925267Y-48253743D01*
X70955010Y-47992762D01*
X71028010Y-47780656D01*
X71042089Y-47758139D01*
X71158038Y-47549557D01*
X71206982Y-47421800D01*
X71223207Y-47425614D01*
X71228478Y-47571392D01*
X71222571Y-47832109D01*
X71212291Y-48056800D01*
X71202548Y-48434523D01*
X71217830Y-48667319D01*
X71253392Y-48749750D01*
X71304487Y-48676378D01*
X71366369Y-48441764D01*
X71398524Y-48270199D01*
X71439296Y-48066008D01*
X71475736Y-48009987D01*
X71525251Y-48082376D01*
X71538566Y-48111213D01*
X71557590Y-48216805D01*
X73558145Y-48216805D01*
X73531945Y-48045336D01*
X73456374Y-47804543D01*
X73365792Y-47567351D01*
X73189476Y-47120234D01*
X73787228Y-45916351D01*
X74046394Y-45412936D01*
X74336456Y-44879557D01*
X74625630Y-44372960D01*
X74882133Y-43949889D01*
X74933324Y-43870122D01*
X75481669Y-43027777D01*
X75577025Y-43404455D01*
X75655571Y-43684842D01*
X75736079Y-43928190D01*
X75757919Y-43983871D01*
X75843455Y-44186608D01*
X76077161Y-43962704D01*
X76271299Y-43792504D01*
X76364698Y-43755451D01*
X76363432Y-43853297D01*
X76299620Y-44026815D01*
X76226971Y-44246315D01*
X76240419Y-44417024D01*
X76303311Y-44563457D01*
X76443793Y-44789564D01*
X76588205Y-44957663D01*
X76678138Y-45026278D01*
X76754196Y-45023909D01*
X76846119Y-44928151D01*
X76983648Y-44716595D01*
X77047897Y-44611317D01*
X77216896Y-44354180D01*
X77393110Y-44119237D01*
X77555562Y-43928926D01*
X77683275Y-43805690D01*
X77755273Y-43771967D01*
X77750579Y-43850199D01*
X77744791Y-43865800D01*
X77572689Y-44324164D01*
X77459251Y-44671757D01*
X77394692Y-44952687D01*
X77369227Y-45211066D01*
X77373072Y-45491004D01*
X77375241Y-45531748D01*
X77417721Y-45919614D01*
X77498290Y-46173551D01*
X77565972Y-46272581D01*
X77736481Y-46422229D01*
X77838385Y-46421468D01*
X77867934Y-46294982D01*
X77916572Y-46103364D01*
X77982402Y-45985287D01*
X78070472Y-45883417D01*
X78117072Y-45926004D01*
X78145659Y-46032605D01*
X78187640Y-46241519D01*
X78235502Y-46525755D01*
X78252471Y-46638634D01*
X78300892Y-46872690D01*
X78359103Y-47017695D01*
X78388403Y-47040800D01*
X78476160Y-47107239D01*
X78601438Y-47273426D01*
X78644965Y-47343596D01*
X78784831Y-47526046D01*
X78888269Y-47544659D01*
X78950471Y-47401950D01*
X78967304Y-47174856D01*
X78981937Y-47004177D01*
X79016017Y-46980745D01*
X79058759Y-47085194D01*
X79099381Y-47298158D01*
X79115728Y-47441437D01*
X79189342Y-47787789D01*
X79354945Y-48050844D01*
X79387521Y-48085546D01*
X79622015Y-48325958D01*
X79722716Y-47926037D01*
X79774093Y-47631473D01*
X79775673Y-47309764D01*
X79727648Y-46894380D01*
X79725704Y-46881500D01*
X79605861Y-46313635D01*
X79423027Y-45852422D01*
X79150870Y-45439196D01*
X78997415Y-45258985D01*
X78822845Y-45050549D01*
X78762809Y-44945256D01*
X78802525Y-44936926D01*
X78927213Y-45019379D01*
X79122093Y-45186433D01*
X79346016Y-45404758D01*
X79584913Y-45640224D01*
X79731093Y-45758208D01*
X79801663Y-45770119D01*
X79815267Y-45717667D01*
X79769209Y-45554096D01*
X79653564Y-45314243D01*
X79502125Y-45055938D01*
X79348684Y-44837013D01*
X79230879Y-44717583D01*
X79143303Y-44611376D01*
X79137934Y-44581916D01*
X79202152Y-44570201D01*
X79363645Y-44633232D01*
X79444229Y-44675729D01*
X79642234Y-44774020D01*
X79770440Y-44813655D01*
X79788764Y-44809525D01*
X79798191Y-44694275D01*
X79741499Y-44472383D01*
X79636706Y-44184157D01*
X79501832Y-43869907D01*
X79354896Y-43569942D01*
X79213916Y-43324570D01*
X79096913Y-43174099D01*
X79045185Y-43146134D01*
X78970773Y-43081466D01*
X78968600Y-43061467D01*
X79036752Y-42990158D01*
X79227048Y-43003578D01*
X79518247Y-43096373D01*
X79889109Y-43263190D01*
X80004618Y-43322585D01*
X80176173Y-43390886D01*
X80254519Y-43346938D01*
X80255641Y-43171118D01*
X80234579Y-43040300D01*
X80222010Y-42954870D01*
X74396600Y-42954870D01*
X74334239Y-43086504D01*
X74311559Y-43104032D01*
X74206948Y-43215340D01*
X74040209Y-43446358D01*
X73829642Y-43767781D01*
X73593547Y-44150307D01*
X73350222Y-44564630D01*
X73117968Y-44981447D01*
X72999600Y-45204955D01*
X72823170Y-45536288D01*
X72671778Y-45803345D01*
X72563524Y-45975255D01*
X72519673Y-46023568D01*
X72443788Y-45959220D01*
X72323765Y-45797208D01*
X72283873Y-45734840D01*
X72057271Y-45440191D01*
X71727296Y-45101021D01*
X71337818Y-44756430D01*
X70932710Y-44445518D01*
X70593155Y-44228018D01*
X70089309Y-43944076D01*
X70528455Y-43788214D01*
X70793112Y-43693772D01*
X70999520Y-43619207D01*
X71073434Y-43591851D01*
X71158064Y-43626542D01*
X71180564Y-43750908D01*
X71210957Y-43996344D01*
X71291130Y-44088946D01*
X71410805Y-44022832D01*
X71484478Y-43924954D01*
X71656920Y-43708344D01*
X71884090Y-43483243D01*
X71941267Y-43434822D01*
X72084920Y-43327970D01*
X72129481Y-43316608D01*
X72099644Y-43360780D01*
X71962515Y-43556534D01*
X71828025Y-43791235D01*
X71694363Y-44055336D01*
X72135315Y-43902088D01*
X72451975Y-43802999D01*
X72759596Y-43723953D01*
X72883820Y-43699516D01*
X73126060Y-43620953D01*
X73318815Y-43446817D01*
X73408043Y-43322782D01*
X73611622Y-43067416D01*
X73678492Y-43003162D01*
X67369267Y-43003162D01*
X67311661Y-43065377D01*
X67154435Y-43024301D01*
X66920980Y-42893016D01*
X66634687Y-42684602D01*
X66328823Y-42421306D01*
X66022132Y-42148981D01*
X65796437Y-41981248D01*
X65618955Y-41897288D01*
X65470409Y-41876134D01*
X65207763Y-41820264D01*
X64933959Y-41678839D01*
X64913934Y-41664467D01*
X64762529Y-41532564D01*
X64744526Y-41464763D01*
X64839248Y-41454935D01*
X65026015Y-41496946D01*
X65284149Y-41584664D01*
X65592973Y-41711958D01*
X65931808Y-41872697D01*
X66279975Y-42060747D01*
X66310934Y-42078728D01*
X66587223Y-42258913D01*
X66866279Y-42471370D01*
X67112959Y-42685400D01*
X67292119Y-42870308D01*
X67368616Y-42995396D01*
X67369267Y-43003162D01*
X73678492Y-43003162D01*
X73847535Y-42840733D01*
X73904824Y-42796973D01*
X74184934Y-42598574D01*
X74034815Y-42830021D01*
X73939178Y-42988139D01*
X73939270Y-43050472D01*
X74035903Y-43061465D01*
X74039049Y-43061467D01*
X74227319Y-43008550D01*
X74295001Y-42959867D01*
X74380156Y-42904747D01*
X74396600Y-42954870D01*
X80222010Y-42954870D01*
X80201204Y-42813463D01*
X80195276Y-42668619D01*
X80201621Y-42647182D01*
X80227431Y-42642582D01*
X80262226Y-42701527D01*
X80319163Y-42855342D01*
X80411397Y-43135352D01*
X80427144Y-43184137D01*
X80487608Y-43340429D01*
X80573330Y-43464949D01*
X80715480Y-43582966D01*
X80945229Y-43719745D01*
X81293747Y-43900553D01*
X81339267Y-43923507D01*
X81853630Y-44161621D01*
X82245956Y-44297003D01*
X82463758Y-44330004D01*
X82713053Y-44362577D01*
X82833204Y-44465273D01*
X82839182Y-44479634D01*
X82950220Y-44644227D01*
X83069358Y-44751834D01*
X83223668Y-44874918D01*
X83446989Y-45068747D01*
X83646434Y-45250253D01*
X83850845Y-45429162D01*
X83998298Y-45536609D01*
X84056452Y-45549553D01*
X84043603Y-44994282D01*
X83908149Y-44377367D01*
X83665427Y-43735375D01*
X83330777Y-43104871D01*
X82919539Y-42522421D01*
X82666426Y-42235967D01*
X82491198Y-42046029D01*
X82385482Y-41915629D01*
X82370294Y-41876134D01*
X82511015Y-41924892D01*
X82739969Y-42053926D01*
X83013445Y-42237376D01*
X83141541Y-42332440D01*
X83373152Y-42489019D01*
X83491152Y-42522217D01*
X83490342Y-42436796D01*
X83365522Y-42237517D01*
X83316037Y-42172641D01*
X83094324Y-41952709D01*
X82937887Y-41833800D01*
X73295934Y-41833800D01*
X73253600Y-41876134D01*
X73211267Y-41833800D01*
X73253600Y-41791467D01*
X73295934Y-41833800D01*
X82937887Y-41833800D01*
X82805676Y-41733305D01*
X73168934Y-41733305D01*
X72406934Y-41842497D01*
X71973646Y-41904463D01*
X71518506Y-41969358D01*
X71127849Y-42024876D01*
X71066695Y-42033539D01*
X70770318Y-42081269D01*
X70545209Y-42128295D01*
X70439295Y-42164576D01*
X70438751Y-42165095D01*
X70319491Y-42207621D01*
X70254989Y-42211190D01*
X70232101Y-42161872D01*
X70337532Y-42027620D01*
X70403165Y-41965842D01*
X70011225Y-41965842D01*
X69974674Y-42099549D01*
X69889222Y-42193355D01*
X69634533Y-42338150D01*
X69316600Y-42406042D01*
X69084133Y-42428881D01*
X68937345Y-42448227D01*
X68914434Y-42454008D01*
X68893753Y-42405525D01*
X68893267Y-42388855D01*
X68944009Y-42276028D01*
X69068039Y-42106097D01*
X69086679Y-42084055D01*
X69290864Y-41915692D01*
X69551851Y-41860081D01*
X69603146Y-41859200D01*
X69887460Y-41885816D01*
X70011225Y-41965842D01*
X70403165Y-41965842D01*
X70498480Y-41876126D01*
X70704881Y-41706478D01*
X70857750Y-41602272D01*
X70916169Y-41584813D01*
X70901359Y-41668737D01*
X70856123Y-41725145D01*
X70767680Y-41852627D01*
X70755934Y-41898772D01*
X70816400Y-41942920D01*
X70975253Y-41896526D01*
X71198676Y-41774859D01*
X71452853Y-41593191D01*
X71478318Y-41572592D01*
X71692153Y-41414204D01*
X71907994Y-41279987D01*
X72093470Y-41185485D01*
X72216211Y-41146245D01*
X72243850Y-41177809D01*
X72218235Y-41217270D01*
X72124518Y-41383234D01*
X72070271Y-41524658D01*
X72043558Y-41665506D01*
X72115478Y-41686583D01*
X72195271Y-41664466D01*
X72391267Y-41641804D01*
X72664435Y-41654568D01*
X72775129Y-41669360D01*
X73168934Y-41733305D01*
X82805676Y-41733305D01*
X82772084Y-41707772D01*
X82402448Y-41471234D01*
X82038547Y-41276503D01*
X81733513Y-41156981D01*
X81680385Y-41144257D01*
X81483890Y-41086082D01*
X81375070Y-41018896D01*
X81374842Y-41018531D01*
X81265207Y-40964430D01*
X81092905Y-40944800D01*
X80827468Y-40918472D01*
X80611068Y-40869702D01*
X80367922Y-40798253D01*
X80072917Y-40715286D01*
X80003955Y-40696427D01*
X79642310Y-40598251D01*
X79813132Y-40462617D01*
X78898181Y-40462617D01*
X78328673Y-40409436D01*
X78037781Y-40378552D01*
X77822437Y-40348692D01*
X77729227Y-40326315D01*
X77729213Y-40326301D01*
X77743916Y-40239418D01*
X77816708Y-40057631D01*
X77853170Y-39979926D01*
X78007079Y-39663504D01*
X78111808Y-40013057D01*
X78195084Y-40236155D01*
X78287734Y-40329961D01*
X78402068Y-40336204D01*
X78523413Y-40289183D01*
X78586445Y-40162093D01*
X78614055Y-39941376D01*
X78610877Y-39646291D01*
X78569798Y-39377240D01*
X78554959Y-39327543D01*
X78507520Y-39157399D01*
X78510085Y-39082317D01*
X78511658Y-39082134D01*
X78579038Y-39157503D01*
X78662719Y-39352553D01*
X78746937Y-39620693D01*
X78815930Y-39915334D01*
X78838301Y-40047542D01*
X78898181Y-40462617D01*
X79813132Y-40462617D01*
X79877269Y-40411692D01*
X80236257Y-40159316D01*
X80519383Y-40029566D01*
X80625179Y-40013467D01*
X80712888Y-39947105D01*
X80705597Y-39757700D01*
X80607046Y-39459778D01*
X80420974Y-39067863D01*
X80346125Y-38929590D01*
X80207015Y-38663862D01*
X80115877Y-38459539D01*
X80090416Y-38356828D01*
X80092395Y-38353450D01*
X80168596Y-38383785D01*
X80307118Y-38526242D01*
X80483002Y-38747835D01*
X80671291Y-39015578D01*
X80847024Y-39296487D01*
X80952966Y-39490765D01*
X81084719Y-39738421D01*
X81176463Y-39856814D01*
X81256168Y-39871767D01*
X81322803Y-39832223D01*
X81447401Y-39739587D01*
X81488545Y-39711758D01*
X81475663Y-39634675D01*
X81404372Y-39462588D01*
X81299700Y-39247845D01*
X81186675Y-39042790D01*
X81116652Y-38933967D01*
X81040575Y-38789130D01*
X81077252Y-38743467D01*
X81187310Y-38803534D01*
X81362043Y-38956072D01*
X81562551Y-39159589D01*
X81749935Y-39372590D01*
X81885298Y-39553583D01*
X81930499Y-39653634D01*
X81981423Y-39752087D01*
X82010141Y-39759467D01*
X82164008Y-39740049D01*
X82389873Y-39691634D01*
X82631893Y-39628978D01*
X82834228Y-39566837D01*
X82941036Y-39519967D01*
X82946268Y-39512092D01*
X82895621Y-39428727D01*
X82761668Y-39247569D01*
X82568989Y-39001342D01*
X82474488Y-38883961D01*
X82213636Y-38538043D01*
X82075092Y-38294587D01*
X82056869Y-38167983D01*
X82109121Y-38100348D01*
X82195760Y-38146978D01*
X82316308Y-38281489D01*
X82492481Y-38510900D01*
X82689504Y-38790210D01*
X82756759Y-38891482D01*
X82900003Y-39096983D01*
X83009706Y-39227253D01*
X83044851Y-39251315D01*
X83063232Y-39178867D01*
X83041312Y-38998519D01*
X83028363Y-38936344D01*
X82988347Y-38728406D01*
X82978031Y-38606980D01*
X82981202Y-38597310D01*
X83076860Y-38608322D01*
X83255108Y-38699471D01*
X83469282Y-38841496D01*
X83672721Y-39005135D01*
X83749145Y-39078875D01*
X83922630Y-39234736D01*
X84099644Y-39311360D01*
X84352281Y-39335272D01*
X84448387Y-39336133D01*
X84901159Y-39336133D01*
X84614085Y-39084079D01*
X84436788Y-38953040D01*
X84170674Y-38784552D01*
X83855783Y-38600683D01*
X83532154Y-38423501D01*
X83239826Y-38275073D01*
X83018839Y-38177466D01*
X82920736Y-38150800D01*
X82799030Y-38118667D01*
X82601548Y-38040331D01*
X82579729Y-38030611D01*
X82305210Y-37931172D01*
X81919888Y-37822515D01*
X81480691Y-37718645D01*
X81044551Y-37633567D01*
X80831267Y-37600494D01*
X80536211Y-37593015D01*
X80120791Y-37626337D01*
X79627070Y-37693386D01*
X79097111Y-37787089D01*
X78572974Y-37900373D01*
X78096722Y-38026165D01*
X77868931Y-38098637D01*
X77640033Y-38167365D01*
X77486079Y-38194696D01*
X77454628Y-38189050D01*
X77461706Y-38095653D01*
X77589250Y-37962665D01*
X77801390Y-37815553D01*
X78062255Y-37679783D01*
X78294854Y-37592516D01*
X78570805Y-37503137D01*
X78733181Y-37414304D01*
X78831528Y-37281119D01*
X78915392Y-37058680D01*
X78928721Y-37018094D01*
X79173000Y-36417140D01*
X79519681Y-35765087D01*
X79937048Y-35114211D01*
X80393387Y-34516787D01*
X80565870Y-34319634D01*
X80778281Y-34086800D01*
X80389804Y-34086800D01*
X80140348Y-34099881D01*
X79988161Y-34165313D01*
X79861684Y-34322378D01*
X79811426Y-34404300D01*
X79693720Y-34622117D01*
X79625939Y-34788153D01*
X79619619Y-34822774D01*
X79566965Y-34949331D01*
X79439988Y-35129634D01*
X79413366Y-35161440D01*
X79288244Y-35294719D01*
X79251263Y-35295892D01*
X79268751Y-35229800D01*
X79321766Y-35046447D01*
X79376588Y-34809060D01*
X79421403Y-34576926D01*
X79444400Y-34409331D01*
X79441552Y-34362487D01*
X79357647Y-34389435D01*
X79190380Y-34525436D01*
X78961419Y-34746718D01*
X78692432Y-35029509D01*
X78405088Y-35350038D01*
X78121055Y-35684532D01*
X77862000Y-36009220D01*
X77649591Y-36300330D01*
X77582670Y-36401847D01*
X77430371Y-36642560D01*
X77121213Y-35986970D01*
X76151029Y-35986970D01*
X76136607Y-36088551D01*
X75962063Y-36220052D01*
X75843863Y-36284088D01*
X75597257Y-36448325D01*
X75328361Y-36683800D01*
X75187696Y-36833366D01*
X74969145Y-37072721D01*
X74830687Y-37191035D01*
X74780552Y-37186245D01*
X74826971Y-37056290D01*
X74913881Y-36901967D01*
X75213999Y-36439997D01*
X75469099Y-36125215D01*
X75692256Y-35945751D01*
X75896542Y-35889737D01*
X76008465Y-35908149D01*
X76151029Y-35986970D01*
X77121213Y-35986970D01*
X77067927Y-35873974D01*
X76861946Y-35447561D01*
X76706001Y-35154597D01*
X76584715Y-34972341D01*
X76482711Y-34878053D01*
X76384614Y-34848994D01*
X76374707Y-34848800D01*
X76248875Y-34790599D01*
X76072693Y-34644389D01*
X76003589Y-34573633D01*
X75843537Y-34408070D01*
X75749106Y-34355295D01*
X75673337Y-34401605D01*
X75623783Y-34462816D01*
X75524497Y-34634125D01*
X75497267Y-34737982D01*
X75448612Y-34839888D01*
X75417264Y-34848800D01*
X75376615Y-34772272D01*
X75354398Y-34574373D01*
X75353764Y-34370923D01*
X75345349Y-34041418D01*
X75291694Y-33874931D01*
X75264434Y-33855868D01*
X75181800Y-33896820D01*
X75154864Y-34058578D01*
X75130737Y-34284614D01*
X75073970Y-34580927D01*
X75040546Y-34718315D01*
X74929965Y-35138164D01*
X74869113Y-34548982D01*
X74818702Y-34074373D01*
X74779256Y-33740968D01*
X74748941Y-33536467D01*
X73973267Y-33536467D01*
X73930934Y-33578800D01*
X73888600Y-33536467D01*
X73930934Y-33494134D01*
X73973267Y-33536467D01*
X74748941Y-33536467D01*
X74746694Y-33521311D01*
X74716930Y-33387941D01*
X74685884Y-33313401D01*
X74685217Y-33312314D01*
X74577501Y-33268143D01*
X74360158Y-33248392D01*
X74210185Y-33250955D01*
X73931189Y-33250171D01*
X73773151Y-33203053D01*
X73706573Y-33129776D01*
X73598972Y-33034845D01*
X73449741Y-32986237D01*
X73328628Y-32997633D01*
G36*
X141661235Y-101566825D02*
X141042550Y-101832716D01*
X140490902Y-102273330D01*
X140020130Y-102881573D01*
X139822807Y-103239388D01*
X139651716Y-103612996D01*
X139554000Y-103920951D01*
X139510252Y-104250796D01*
X139501065Y-104690074D01*
X139501067Y-104690729D01*
X139516568Y-105158995D01*
X139567845Y-105498485D01*
X139667293Y-105776704D01*
X139719072Y-105878170D01*
X139846455Y-106101287D01*
X139925326Y-106219195D01*
X139937470Y-106224085D01*
X139908685Y-106108751D01*
X139833048Y-105878610D01*
X139797927Y-105779337D01*
X139657365Y-105112912D01*
X139698936Y-104442974D01*
X139909970Y-103799520D01*
X140277796Y-103212548D01*
X140789745Y-102712054D01*
X141208828Y-102439082D01*
X141878044Y-102156826D01*
X142522232Y-102041563D01*
X143118735Y-102089751D01*
X143644895Y-102297850D01*
X144078053Y-102662316D01*
X144261280Y-102916194D01*
X144329504Y-103012592D01*
X144333492Y-102953896D01*
X144287814Y-102764941D01*
X144116886Y-102417946D01*
X143815948Y-102069508D01*
X143444130Y-101775614D01*
X143060563Y-101592248D01*
X143044358Y-101587599D01*
X142333117Y-101482755D01*
X141661235Y-101566825D01*
X141661235Y-101566825D01*
G37*
X141661235Y-101566825D02*
X141042550Y-101832716D01*
X140490902Y-102273330D01*
X140020130Y-102881573D01*
X139822807Y-103239388D01*
X139651716Y-103612996D01*
X139554000Y-103920951D01*
X139510252Y-104250796D01*
X139501065Y-104690074D01*
X139501067Y-104690729D01*
X139516568Y-105158995D01*
X139567845Y-105498485D01*
X139667293Y-105776704D01*
X139719072Y-105878170D01*
X139846455Y-106101287D01*
X139925326Y-106219195D01*
X139937470Y-106224085D01*
X139908685Y-106108751D01*
X139833048Y-105878610D01*
X139797927Y-105779337D01*
X139657365Y-105112912D01*
X139698936Y-104442974D01*
X139909970Y-103799520D01*
X140277796Y-103212548D01*
X140789745Y-102712054D01*
X141208828Y-102439082D01*
X141878044Y-102156826D01*
X142522232Y-102041563D01*
X143118735Y-102089751D01*
X143644895Y-102297850D01*
X144078053Y-102662316D01*
X144261280Y-102916194D01*
X144329504Y-103012592D01*
X144333492Y-102953896D01*
X144287814Y-102764941D01*
X144116886Y-102417946D01*
X143815948Y-102069508D01*
X143444130Y-101775614D01*
X143060563Y-101592248D01*
X143044358Y-101587599D01*
X142333117Y-101482755D01*
X141661235Y-101566825D01*
G36*
X139943327Y-106372334D02*
X139992743Y-106421750D01*
X140042159Y-106372334D01*
X139992743Y-106322917D01*
X139943327Y-106372334D01*
X139943327Y-106372334D01*
G37*
X139943327Y-106372334D02*
X139992743Y-106421750D01*
X140042159Y-106372334D01*
X139992743Y-106322917D01*
X139943327Y-106372334D01*
G36*
X132219212Y-101597006D02*
X131858266Y-101751358D01*
X131671802Y-101838415D01*
X130948869Y-102286362D01*
X130305597Y-102893445D01*
X129768458Y-103628425D01*
X129363924Y-104460066D01*
X129300924Y-104636239D01*
X129085369Y-105276694D01*
X128559678Y-105383086D01*
X127833647Y-105624913D01*
X127100514Y-106052099D01*
X126372836Y-106653321D01*
X125663168Y-107417252D01*
X124984068Y-108332567D01*
X124586490Y-108966692D01*
X124523079Y-109094506D01*
X124554055Y-109090238D01*
X124654051Y-108979062D01*
X124797697Y-108786154D01*
X124858151Y-108697108D01*
X125463494Y-107936207D01*
X126200908Y-107260944D01*
X127030269Y-106698257D01*
X127911454Y-106275086D01*
X128804338Y-106018370D01*
X128863638Y-106007775D01*
X129533510Y-105892905D01*
X129657428Y-105292542D01*
X129946391Y-104375701D01*
X130418062Y-103517200D01*
X131062419Y-102731494D01*
X131869438Y-102033036D01*
X131966103Y-101963292D01*
X132285462Y-101724824D01*
X132433584Y-101584068D01*
X132411242Y-101541352D01*
X132219212Y-101597006D01*
X132219212Y-101597006D01*
G37*
X132219212Y-101597006D02*
X131858266Y-101751358D01*
X131671802Y-101838415D01*
X130948869Y-102286362D01*
X130305597Y-102893445D01*
X129768458Y-103628425D01*
X129363924Y-104460066D01*
X129300924Y-104636239D01*
X129085369Y-105276694D01*
X128559678Y-105383086D01*
X127833647Y-105624913D01*
X127100514Y-106052099D01*
X126372836Y-106653321D01*
X125663168Y-107417252D01*
X124984068Y-108332567D01*
X124586490Y-108966692D01*
X124523079Y-109094506D01*
X124554055Y-109090238D01*
X124654051Y-108979062D01*
X124797697Y-108786154D01*
X124858151Y-108697108D01*
X125463494Y-107936207D01*
X126200908Y-107260944D01*
X127030269Y-106698257D01*
X127911454Y-106275086D01*
X128804338Y-106018370D01*
X128863638Y-106007775D01*
X129533510Y-105892905D01*
X129657428Y-105292542D01*
X129946391Y-104375701D01*
X130418062Y-103517200D01*
X131062419Y-102731494D01*
X131869438Y-102033036D01*
X131966103Y-101963292D01*
X132285462Y-101724824D01*
X132433584Y-101584068D01*
X132411242Y-101541352D01*
X132219212Y-101597006D01*
G36*
X140901688Y-97294240D02*
X140208448Y-97522120D01*
X139553449Y-97857653D01*
X138985962Y-98281884D01*
X138693775Y-98588339D01*
X138343057Y-99069125D01*
X138095437Y-99547038D01*
X137936064Y-100070952D01*
X137850086Y-100689742D01*
X137822651Y-101452281D01*
X137822641Y-101455145D01*
X137818248Y-101918088D01*
X137809336Y-102299326D01*
X137797174Y-102561039D01*
X137783029Y-102665408D01*
X137782055Y-102665846D01*
X137693269Y-102606743D01*
X137508667Y-102456249D01*
X137391745Y-102355344D01*
X136797147Y-101952787D01*
X136151127Y-101723549D01*
X135478446Y-101658558D01*
X134803869Y-101748739D01*
X134152158Y-101985019D01*
X133548077Y-102358324D01*
X133016389Y-102859582D01*
X132581857Y-103479717D01*
X132269244Y-104209657D01*
X132261392Y-104235181D01*
X132174274Y-104653064D01*
X132115185Y-105206913D01*
X132086752Y-105836670D01*
X132091602Y-106482275D01*
X132132361Y-107083669D01*
X132135544Y-107112902D01*
X132184961Y-107556972D01*
X131443716Y-107629764D01*
X130645746Y-107759670D01*
X129807869Y-107985937D01*
X128989214Y-108286793D01*
X128248908Y-108640466D01*
X127646081Y-109025183D01*
X127638657Y-109030871D01*
X127499299Y-109150125D01*
X127526504Y-109165197D01*
X127719006Y-109076325D01*
X127897257Y-108981937D01*
X128573634Y-108682490D01*
X129380862Y-108433031D01*
X130255527Y-108247043D01*
X131134214Y-108138007D01*
X131953511Y-108119405D01*
X131954296Y-108119437D01*
X132343550Y-108132205D01*
X132572535Y-108125738D01*
X132678356Y-108091592D01*
X132698113Y-108021323D01*
X132682773Y-107953656D01*
X132558349Y-107373832D01*
X132485950Y-106731326D01*
X132471685Y-106110862D01*
X132515336Y-105631319D01*
X132724343Y-104863485D01*
X133060317Y-104139494D01*
X133497278Y-103497668D01*
X134009242Y-102976330D01*
X134556945Y-102620080D01*
X135191781Y-102423690D01*
X135881426Y-102401648D01*
X136596009Y-102549694D01*
X137305660Y-102863567D01*
X137612640Y-103055853D01*
X138065506Y-103367433D01*
X138067222Y-102843813D01*
X138148748Y-101941042D01*
X138375342Y-101051417D01*
X138728815Y-100222775D01*
X139190975Y-99502956D01*
X139450810Y-99205273D01*
X139900973Y-98817744D01*
X140419203Y-98490121D01*
X140949068Y-98251115D01*
X141434136Y-98129438D01*
X141584158Y-98119882D01*
X142057567Y-98213192D01*
X142480188Y-98474690D01*
X142825927Y-98876448D01*
X143068694Y-99390539D01*
X143164673Y-99811587D01*
X143226800Y-100267960D01*
X144080588Y-100319431D01*
X144905754Y-100422419D01*
X145599616Y-100633549D01*
X146206279Y-100969839D01*
X146609823Y-101295343D01*
X147140989Y-101898454D01*
X147519610Y-102605736D01*
X147746019Y-103375426D01*
X147860958Y-103936496D01*
X148408663Y-103748058D01*
X149448151Y-103461207D01*
X150549989Y-103301354D01*
X151590499Y-103259104D01*
X152991443Y-103340239D01*
X154335241Y-103589277D01*
X155655567Y-104014667D01*
X156942548Y-104602143D01*
X157316557Y-104790421D01*
X157524526Y-104881831D01*
X157570226Y-104880677D01*
X157457427Y-104791266D01*
X157189898Y-104617903D01*
X156771409Y-104364894D01*
X156695756Y-104320284D01*
X155847452Y-103876224D01*
X154888468Y-103466441D01*
X153905781Y-103126994D01*
X153614869Y-103043035D01*
X153269653Y-102957995D01*
X152925421Y-102897936D01*
X152536132Y-102858674D01*
X152055746Y-102836026D01*
X151438220Y-102825806D01*
X151210253Y-102824501D01*
X150423583Y-102831329D01*
X149794910Y-102858110D01*
X149338745Y-102903997D01*
X149134766Y-102945603D01*
X148831616Y-103032609D01*
X148590886Y-103101753D01*
X148530992Y-103118976D01*
X148437088Y-103109828D01*
X148376114Y-102991220D01*
X148333368Y-102725944D01*
X148319214Y-102583013D01*
X148173287Y-101836396D01*
X147877869Y-101198826D01*
X147428249Y-100666773D01*
X146819718Y-100236709D01*
X146047566Y-99905104D01*
X145107082Y-99668428D01*
X144270476Y-99549205D01*
X143951533Y-99510250D01*
X143776732Y-99455251D01*
X143693512Y-99348687D01*
X143649314Y-99155036D01*
X143644449Y-99126130D01*
X143460222Y-98410840D01*
X143173885Y-97862955D01*
X142782877Y-97479111D01*
X142284635Y-97255947D01*
X142205807Y-97237255D01*
X141583898Y-97192966D01*
X140901688Y-97294240D01*
X140901688Y-97294240D01*
G37*
X140901688Y-97294240D02*
X140208448Y-97522120D01*
X139553449Y-97857653D01*
X138985962Y-98281884D01*
X138693775Y-98588339D01*
X138343057Y-99069125D01*
X138095437Y-99547038D01*
X137936064Y-100070952D01*
X137850086Y-100689742D01*
X137822651Y-101452281D01*
X137822641Y-101455145D01*
X137818248Y-101918088D01*
X137809336Y-102299326D01*
X137797174Y-102561039D01*
X137783029Y-102665408D01*
X137782055Y-102665846D01*
X137693269Y-102606743D01*
X137508667Y-102456249D01*
X137391745Y-102355344D01*
X136797147Y-101952787D01*
X136151127Y-101723549D01*
X135478446Y-101658558D01*
X134803869Y-101748739D01*
X134152158Y-101985019D01*
X133548077Y-102358324D01*
X133016389Y-102859582D01*
X132581857Y-103479717D01*
X132269244Y-104209657D01*
X132261392Y-104235181D01*
X132174274Y-104653064D01*
X132115185Y-105206913D01*
X132086752Y-105836670D01*
X132091602Y-106482275D01*
X132132361Y-107083669D01*
X132135544Y-107112902D01*
X132184961Y-107556972D01*
X131443716Y-107629764D01*
X130645746Y-107759670D01*
X129807869Y-107985937D01*
X128989214Y-108286793D01*
X128248908Y-108640466D01*
X127646081Y-109025183D01*
X127638657Y-109030871D01*
X127499299Y-109150125D01*
X127526504Y-109165197D01*
X127719006Y-109076325D01*
X127897257Y-108981937D01*
X128573634Y-108682490D01*
X129380862Y-108433031D01*
X130255527Y-108247043D01*
X131134214Y-108138007D01*
X131953511Y-108119405D01*
X131954296Y-108119437D01*
X132343550Y-108132205D01*
X132572535Y-108125738D01*
X132678356Y-108091592D01*
X132698113Y-108021323D01*
X132682773Y-107953656D01*
X132558349Y-107373832D01*
X132485950Y-106731326D01*
X132471685Y-106110862D01*
X132515336Y-105631319D01*
X132724343Y-104863485D01*
X133060317Y-104139494D01*
X133497278Y-103497668D01*
X134009242Y-102976330D01*
X134556945Y-102620080D01*
X135191781Y-102423690D01*
X135881426Y-102401648D01*
X136596009Y-102549694D01*
X137305660Y-102863567D01*
X137612640Y-103055853D01*
X138065506Y-103367433D01*
X138067222Y-102843813D01*
X138148748Y-101941042D01*
X138375342Y-101051417D01*
X138728815Y-100222775D01*
X139190975Y-99502956D01*
X139450810Y-99205273D01*
X139900973Y-98817744D01*
X140419203Y-98490121D01*
X140949068Y-98251115D01*
X141434136Y-98129438D01*
X141584158Y-98119882D01*
X142057567Y-98213192D01*
X142480188Y-98474690D01*
X142825927Y-98876448D01*
X143068694Y-99390539D01*
X143164673Y-99811587D01*
X143226800Y-100267960D01*
X144080588Y-100319431D01*
X144905754Y-100422419D01*
X145599616Y-100633549D01*
X146206279Y-100969839D01*
X146609823Y-101295343D01*
X147140989Y-101898454D01*
X147519610Y-102605736D01*
X147746019Y-103375426D01*
X147860958Y-103936496D01*
X148408663Y-103748058D01*
X149448151Y-103461207D01*
X150549989Y-103301354D01*
X151590499Y-103259104D01*
X152991443Y-103340239D01*
X154335241Y-103589277D01*
X155655567Y-104014667D01*
X156942548Y-104602143D01*
X157316557Y-104790421D01*
X157524526Y-104881831D01*
X157570226Y-104880677D01*
X157457427Y-104791266D01*
X157189898Y-104617903D01*
X156771409Y-104364894D01*
X156695756Y-104320284D01*
X155847452Y-103876224D01*
X154888468Y-103466441D01*
X153905781Y-103126994D01*
X153614869Y-103043035D01*
X153269653Y-102957995D01*
X152925421Y-102897936D01*
X152536132Y-102858674D01*
X152055746Y-102836026D01*
X151438220Y-102825806D01*
X151210253Y-102824501D01*
X150423583Y-102831329D01*
X149794910Y-102858110D01*
X149338745Y-102903997D01*
X149134766Y-102945603D01*
X148831616Y-103032609D01*
X148590886Y-103101753D01*
X148530992Y-103118976D01*
X148437088Y-103109828D01*
X148376114Y-102991220D01*
X148333368Y-102725944D01*
X148319214Y-102583013D01*
X148173287Y-101836396D01*
X147877869Y-101198826D01*
X147428249Y-100666773D01*
X146819718Y-100236709D01*
X146047566Y-99905104D01*
X145107082Y-99668428D01*
X144270476Y-99549205D01*
X143951533Y-99510250D01*
X143776732Y-99455251D01*
X143693512Y-99348687D01*
X143649314Y-99155036D01*
X143644449Y-99126130D01*
X143460222Y-98410840D01*
X143173885Y-97862955D01*
X142782877Y-97479111D01*
X142284635Y-97255947D01*
X142205807Y-97237255D01*
X141583898Y-97192966D01*
X140901688Y-97294240D01*
G36*
X136646411Y-104585754D02*
X136033481Y-104705512D01*
X135560741Y-104961098D01*
X135225070Y-105356260D01*
X135023345Y-105894746D01*
X134952443Y-106580306D01*
X134952276Y-106619415D01*
X135033313Y-107364757D01*
X135267084Y-108019774D01*
X135639582Y-108563882D01*
X136136799Y-108976500D01*
X136731264Y-109233372D01*
X137126693Y-109329378D01*
X137493575Y-109395850D01*
X137790199Y-109428091D01*
X137974850Y-109421408D01*
X138010279Y-109377329D01*
X137876534Y-109302854D01*
X137759237Y-109287898D01*
X137470221Y-109221497D01*
X137097254Y-109042107D01*
X136693158Y-108779443D01*
X136337303Y-108487947D01*
X135881079Y-107936939D01*
X135585065Y-107286775D01*
X135464562Y-106572734D01*
X135462571Y-106471166D01*
X135531198Y-105852580D01*
X135745349Y-105364309D01*
X136114155Y-104993601D01*
X136646749Y-104727700D01*
X136731264Y-104699276D01*
X137225428Y-104540814D01*
X136646411Y-104585754D01*
X136646411Y-104585754D01*
G37*
X136646411Y-104585754D02*
X136033481Y-104705512D01*
X135560741Y-104961098D01*
X135225070Y-105356260D01*
X135023345Y-105894746D01*
X134952443Y-106580306D01*
X134952276Y-106619415D01*
X135033313Y-107364757D01*
X135267084Y-108019774D01*
X135639582Y-108563882D01*
X136136799Y-108976500D01*
X136731264Y-109233372D01*
X137126693Y-109329378D01*
X137493575Y-109395850D01*
X137790199Y-109428091D01*
X137974850Y-109421408D01*
X138010279Y-109377329D01*
X137876534Y-109302854D01*
X137759237Y-109287898D01*
X137470221Y-109221497D01*
X137097254Y-109042107D01*
X136693158Y-108779443D01*
X136337303Y-108487947D01*
X135881079Y-107936939D01*
X135585065Y-107286775D01*
X135464562Y-106572734D01*
X135462571Y-106471166D01*
X135531198Y-105852580D01*
X135745349Y-105364309D01*
X136114155Y-104993601D01*
X136646749Y-104727700D01*
X136731264Y-104699276D01*
X137225428Y-104540814D01*
X136646411Y-104585754D01*
G36*
X143288419Y-104692178D02*
X143684763Y-105657479D01*
X143930155Y-106604694D01*
X144021566Y-107508681D01*
X143955969Y-108344299D01*
X143797845Y-108921902D01*
X143456341Y-109558486D01*
X142938928Y-110141849D01*
X142263253Y-110658859D01*
X141446964Y-111096387D01*
X140507709Y-111441302D01*
X140352064Y-111485681D01*
X139662680Y-111619147D01*
X138800409Y-111687770D01*
X137762196Y-111691514D01*
X136544985Y-111630343D01*
X135145721Y-111504220D01*
X134359280Y-111414667D01*
X132450237Y-111222056D01*
X130689400Y-111127933D01*
X129051849Y-111135398D01*
X127512664Y-111247552D01*
X126046925Y-111467496D01*
X124629711Y-111798329D01*
X123236102Y-112243152D01*
X121841177Y-112805065D01*
X121338074Y-113034645D01*
X120898915Y-113246798D01*
X120614695Y-113396818D01*
X120491277Y-113480328D01*
X120534523Y-113492949D01*
X120750294Y-113430304D01*
X120857834Y-113393259D01*
X121257345Y-113275324D01*
X121803116Y-113146490D01*
X122444824Y-113016511D01*
X123132144Y-112895139D01*
X123814753Y-112792127D01*
X124228252Y-112740072D01*
X125381268Y-112657423D01*
X126656713Y-112651072D01*
X127996700Y-112716342D01*
X129343340Y-112848554D01*
X130638744Y-113043033D01*
X131825023Y-113295101D01*
X132145620Y-113379763D01*
X132582812Y-113501589D01*
X133134958Y-113655953D01*
X133726757Y-113821782D01*
X134211031Y-113957785D01*
X134791221Y-114112604D01*
X135412424Y-114264713D01*
X135993224Y-114394848D01*
X136385350Y-114472209D01*
X136907780Y-114545616D01*
X137545896Y-114605293D01*
X138250230Y-114649559D01*
X138971319Y-114676736D01*
X139659695Y-114685142D01*
X140265894Y-114673098D01*
X140740450Y-114638925D01*
X140851208Y-114623876D01*
X142054102Y-114361579D01*
X143113914Y-113980802D01*
X144025086Y-113485012D01*
X144782061Y-112877677D01*
X145379282Y-112162265D01*
X145699809Y-111597968D01*
X145834444Y-111304047D01*
X145925108Y-111061494D01*
X145980474Y-110818694D01*
X146009215Y-110524029D01*
X146020003Y-110125884D01*
X146021537Y-109683228D01*
X146019079Y-109161321D01*
X146005443Y-108782571D01*
X145971236Y-108492475D01*
X145907066Y-108236535D01*
X145803539Y-107960248D01*
X145672270Y-107656665D01*
X145281958Y-106864393D01*
X144836473Y-106154227D01*
X144292666Y-105463488D01*
X143774909Y-104900378D01*
X142999392Y-104099182D01*
X143288419Y-104692178D01*
X143288419Y-104692178D01*
G37*
X143288419Y-104692178D02*
X143684763Y-105657479D01*
X143930155Y-106604694D01*
X144021566Y-107508681D01*
X143955969Y-108344299D01*
X143797845Y-108921902D01*
X143456341Y-109558486D01*
X142938928Y-110141849D01*
X142263253Y-110658859D01*
X141446964Y-111096387D01*
X140507709Y-111441302D01*
X140352064Y-111485681D01*
X139662680Y-111619147D01*
X138800409Y-111687770D01*
X137762196Y-111691514D01*
X136544985Y-111630343D01*
X135145721Y-111504220D01*
X134359280Y-111414667D01*
X132450237Y-111222056D01*
X130689400Y-111127933D01*
X129051849Y-111135398D01*
X127512664Y-111247552D01*
X126046925Y-111467496D01*
X124629711Y-111798329D01*
X123236102Y-112243152D01*
X121841177Y-112805065D01*
X121338074Y-113034645D01*
X120898915Y-113246798D01*
X120614695Y-113396818D01*
X120491277Y-113480328D01*
X120534523Y-113492949D01*
X120750294Y-113430304D01*
X120857834Y-113393259D01*
X121257345Y-113275324D01*
X121803116Y-113146490D01*
X122444824Y-113016511D01*
X123132144Y-112895139D01*
X123814753Y-112792127D01*
X124228252Y-112740072D01*
X125381268Y-112657423D01*
X126656713Y-112651072D01*
X127996700Y-112716342D01*
X129343340Y-112848554D01*
X130638744Y-113043033D01*
X131825023Y-113295101D01*
X132145620Y-113379763D01*
X132582812Y-113501589D01*
X133134958Y-113655953D01*
X133726757Y-113821782D01*
X134211031Y-113957785D01*
X134791221Y-114112604D01*
X135412424Y-114264713D01*
X135993224Y-114394848D01*
X136385350Y-114472209D01*
X136907780Y-114545616D01*
X137545896Y-114605293D01*
X138250230Y-114649559D01*
X138971319Y-114676736D01*
X139659695Y-114685142D01*
X140265894Y-114673098D01*
X140740450Y-114638925D01*
X140851208Y-114623876D01*
X142054102Y-114361579D01*
X143113914Y-113980802D01*
X144025086Y-113485012D01*
X144782061Y-112877677D01*
X145379282Y-112162265D01*
X145699809Y-111597968D01*
X145834444Y-111304047D01*
X145925108Y-111061494D01*
X145980474Y-110818694D01*
X146009215Y-110524029D01*
X146020003Y-110125884D01*
X146021537Y-109683228D01*
X146019079Y-109161321D01*
X146005443Y-108782571D01*
X145971236Y-108492475D01*
X145907066Y-108236535D01*
X145803539Y-107960248D01*
X145672270Y-107656665D01*
X145281958Y-106864393D01*
X144836473Y-106154227D01*
X144292666Y-105463488D01*
X143774909Y-104900378D01*
X142999392Y-104099182D01*
X143288419Y-104692178D01*
G36*
X112764338Y-117046263D02*
X112813755Y-117095680D01*
X112863171Y-117046263D01*
X112813755Y-116996847D01*
X112764338Y-117046263D01*
X112764338Y-117046263D01*
G37*
X112764338Y-117046263D02*
X112813755Y-117095680D01*
X112863171Y-117046263D01*
X112813755Y-116996847D01*
X112764338Y-117046263D01*
G36*
X153185331Y-107391746D02*
X152071406Y-107515428D01*
X151045737Y-107720283D01*
X150131027Y-108001306D01*
X149349977Y-108353492D01*
X148725287Y-108771839D01*
X148514120Y-108966981D01*
X148140556Y-109351674D01*
X148290286Y-109986906D01*
X148446633Y-111011202D01*
X148418592Y-111965833D01*
X148208409Y-112846252D01*
X147818325Y-113647913D01*
X147250586Y-114366268D01*
X146507435Y-114996770D01*
X145591116Y-115534872D01*
X145540208Y-115559552D01*
X144721192Y-115910794D01*
X143878412Y-116182265D01*
X142976925Y-116380340D01*
X141981788Y-116511394D01*
X140858059Y-116581802D01*
X139844494Y-116598748D01*
X138912914Y-116589304D01*
X138052621Y-116556334D01*
X137226865Y-116494826D01*
X136398897Y-116399769D01*
X135531968Y-116266151D01*
X134589330Y-116088962D01*
X133534232Y-115863190D01*
X132329925Y-115583824D01*
X132234377Y-115561005D01*
X131237289Y-115326304D01*
X130389526Y-115137856D01*
X129649658Y-114990100D01*
X128976256Y-114877477D01*
X128327890Y-114794428D01*
X127663132Y-114735392D01*
X126940551Y-114694810D01*
X126118719Y-114667122D01*
X125464338Y-114652477D01*
X124526815Y-114638812D01*
X123743570Y-114638703D01*
X123071600Y-114653415D01*
X122467900Y-114684214D01*
X121889466Y-114732366D01*
X121560447Y-114767394D01*
X119161851Y-115131049D01*
X116784320Y-115676134D01*
X114401385Y-116408839D01*
X114118720Y-116507923D01*
X113626216Y-116688177D01*
X113271454Y-116828687D01*
X113062781Y-116924010D01*
X113008543Y-116968703D01*
X113117087Y-116957323D01*
X113396757Y-116884427D01*
X113663499Y-116804798D01*
X114357803Y-116605843D01*
X115189331Y-116391443D01*
X116099764Y-116175044D01*
X117030784Y-115970096D01*
X117924073Y-115790045D01*
X118570532Y-115673274D01*
X120144091Y-115440432D01*
X121607433Y-115295846D01*
X123024794Y-115234829D01*
X124377179Y-115249646D01*
X125196281Y-115287018D01*
X125965863Y-115342452D01*
X126714955Y-115421189D01*
X127472589Y-115528470D01*
X128267794Y-115669533D01*
X129129603Y-115849619D01*
X130087046Y-116073968D01*
X131169154Y-116347820D01*
X132404959Y-116676415D01*
X132649886Y-116742846D01*
X133943083Y-117088296D01*
X135079766Y-117376623D01*
X136091022Y-117612972D01*
X137007938Y-117802488D01*
X137861601Y-117950316D01*
X138683099Y-118061602D01*
X139503519Y-118141491D01*
X140353947Y-118195128D01*
X141265471Y-118227658D01*
X141672899Y-118236245D01*
X142669033Y-118245533D01*
X143492757Y-118234576D01*
X144168366Y-118202605D01*
X144720154Y-118148851D01*
X144806076Y-118137108D01*
X146233309Y-117858573D01*
X147533622Y-117452817D01*
X148700228Y-116925073D01*
X149726336Y-116280573D01*
X150605157Y-115524551D01*
X151329902Y-114662239D01*
X151893781Y-113698870D01*
X152290005Y-112639677D01*
X152375365Y-112303134D01*
X152543246Y-111564457D01*
X153044008Y-111361212D01*
X153897724Y-111086668D01*
X154917764Y-110884006D01*
X156086113Y-110753761D01*
X157384754Y-110696470D01*
X158795672Y-110712668D01*
X160300852Y-110802888D01*
X161882276Y-110967668D01*
X162674844Y-111075104D01*
X165094190Y-111485290D01*
X167484588Y-112009891D01*
X169884318Y-112659220D01*
X172331660Y-113443590D01*
X174746430Y-114327403D01*
X175252772Y-114521186D01*
X175690007Y-114684768D01*
X176027067Y-114806829D01*
X176232883Y-114876049D01*
X176282226Y-114887001D01*
X176210351Y-114832265D01*
X175986012Y-114701226D01*
X175633288Y-114506486D01*
X175176257Y-114260647D01*
X174638998Y-113976311D01*
X174045590Y-113666082D01*
X173420112Y-113342560D01*
X172786642Y-113018349D01*
X172169259Y-112706051D01*
X171592042Y-112418267D01*
X171174455Y-112213716D01*
X169225085Y-111307483D01*
X167315466Y-110503105D01*
X165354428Y-109763413D01*
X164107918Y-109332747D01*
X162519894Y-108820996D01*
X161070124Y-108398162D01*
X159724429Y-108056526D01*
X158448631Y-107788365D01*
X157208553Y-107585961D01*
X155970016Y-107441591D01*
X155587147Y-107407911D01*
X154364812Y-107354238D01*
X153185331Y-107391746D01*
X153185331Y-107391746D01*
G37*
X153185331Y-107391746D02*
X152071406Y-107515428D01*
X151045737Y-107720283D01*
X150131027Y-108001306D01*
X149349977Y-108353492D01*
X148725287Y-108771839D01*
X148514120Y-108966981D01*
X148140556Y-109351674D01*
X148290286Y-109986906D01*
X148446633Y-111011202D01*
X148418592Y-111965833D01*
X148208409Y-112846252D01*
X147818325Y-113647913D01*
X147250586Y-114366268D01*
X146507435Y-114996770D01*
X145591116Y-115534872D01*
X145540208Y-115559552D01*
X144721192Y-115910794D01*
X143878412Y-116182265D01*
X142976925Y-116380340D01*
X141981788Y-116511394D01*
X140858059Y-116581802D01*
X139844494Y-116598748D01*
X138912914Y-116589304D01*
X138052621Y-116556334D01*
X137226865Y-116494826D01*
X136398897Y-116399769D01*
X135531968Y-116266151D01*
X134589330Y-116088962D01*
X133534232Y-115863190D01*
X132329925Y-115583824D01*
X132234377Y-115561005D01*
X131237289Y-115326304D01*
X130389526Y-115137856D01*
X129649658Y-114990100D01*
X128976256Y-114877477D01*
X128327890Y-114794428D01*
X127663132Y-114735392D01*
X126940551Y-114694810D01*
X126118719Y-114667122D01*
X125464338Y-114652477D01*
X124526815Y-114638812D01*
X123743570Y-114638703D01*
X123071600Y-114653415D01*
X122467900Y-114684214D01*
X121889466Y-114732366D01*
X121560447Y-114767394D01*
X119161851Y-115131049D01*
X116784320Y-115676134D01*
X114401385Y-116408839D01*
X114118720Y-116507923D01*
X113626216Y-116688177D01*
X113271454Y-116828687D01*
X113062781Y-116924010D01*
X113008543Y-116968703D01*
X113117087Y-116957323D01*
X113396757Y-116884427D01*
X113663499Y-116804798D01*
X114357803Y-116605843D01*
X115189331Y-116391443D01*
X116099764Y-116175044D01*
X117030784Y-115970096D01*
X117924073Y-115790045D01*
X118570532Y-115673274D01*
X120144091Y-115440432D01*
X121607433Y-115295846D01*
X123024794Y-115234829D01*
X124377179Y-115249646D01*
X125196281Y-115287018D01*
X125965863Y-115342452D01*
X126714955Y-115421189D01*
X127472589Y-115528470D01*
X128267794Y-115669533D01*
X129129603Y-115849619D01*
X130087046Y-116073968D01*
X131169154Y-116347820D01*
X132404959Y-116676415D01*
X132649886Y-116742846D01*
X133943083Y-117088296D01*
X135079766Y-117376623D01*
X136091022Y-117612972D01*
X137007938Y-117802488D01*
X137861601Y-117950316D01*
X138683099Y-118061602D01*
X139503519Y-118141491D01*
X140353947Y-118195128D01*
X141265471Y-118227658D01*
X141672899Y-118236245D01*
X142669033Y-118245533D01*
X143492757Y-118234576D01*
X144168366Y-118202605D01*
X144720154Y-118148851D01*
X144806076Y-118137108D01*
X146233309Y-117858573D01*
X147533622Y-117452817D01*
X148700228Y-116925073D01*
X149726336Y-116280573D01*
X150605157Y-115524551D01*
X151329902Y-114662239D01*
X151893781Y-113698870D01*
X152290005Y-112639677D01*
X152375365Y-112303134D01*
X152543246Y-111564457D01*
X153044008Y-111361212D01*
X153897724Y-111086668D01*
X154917764Y-110884006D01*
X156086113Y-110753761D01*
X157384754Y-110696470D01*
X158795672Y-110712668D01*
X160300852Y-110802888D01*
X161882276Y-110967668D01*
X162674844Y-111075104D01*
X165094190Y-111485290D01*
X167484588Y-112009891D01*
X169884318Y-112659220D01*
X172331660Y-113443590D01*
X174746430Y-114327403D01*
X175252772Y-114521186D01*
X175690007Y-114684768D01*
X176027067Y-114806829D01*
X176232883Y-114876049D01*
X176282226Y-114887001D01*
X176210351Y-114832265D01*
X175986012Y-114701226D01*
X175633288Y-114506486D01*
X175176257Y-114260647D01*
X174638998Y-113976311D01*
X174045590Y-113666082D01*
X173420112Y-113342560D01*
X172786642Y-113018349D01*
X172169259Y-112706051D01*
X171592042Y-112418267D01*
X171174455Y-112213716D01*
X169225085Y-111307483D01*
X167315466Y-110503105D01*
X165354428Y-109763413D01*
X164107918Y-109332747D01*
X162519894Y-108820996D01*
X161070124Y-108398162D01*
X159724429Y-108056526D01*
X158448631Y-107788365D01*
X157208553Y-107585961D01*
X155970016Y-107441591D01*
X155587147Y-107407911D01*
X154364812Y-107354238D01*
X153185331Y-107391746D01*
G36*
X158491039Y-112995616D02*
X157724492Y-113020901D01*
X157056900Y-113061958D01*
X156524849Y-113118825D01*
X156258950Y-113166587D01*
X155642691Y-113320319D01*
X155194727Y-113461795D01*
X154887343Y-113604272D01*
X154692822Y-113761007D01*
X154583449Y-113945255D01*
X154573823Y-113972576D01*
X154391704Y-114394767D01*
X154105579Y-114906468D01*
X153749304Y-115455534D01*
X153356734Y-115989823D01*
X152961728Y-116457191D01*
X152957784Y-116461455D01*
X152036552Y-117314972D01*
X150950934Y-118066386D01*
X149707443Y-118712918D01*
X148312591Y-119251785D01*
X146772893Y-119680207D01*
X145094861Y-119995405D01*
X144489630Y-120076814D01*
X144010185Y-120120336D01*
X143384876Y-120155243D01*
X142657179Y-120181142D01*
X141870571Y-120197641D01*
X141068529Y-120204348D01*
X140294528Y-120200871D01*
X139592045Y-120186818D01*
X139004557Y-120161795D01*
X138612374Y-120129838D01*
X138214008Y-120088114D01*
X137997086Y-120074064D01*
X137947846Y-120084290D01*
X138052526Y-120115395D01*
X138297361Y-120163982D01*
X138668590Y-120226652D01*
X139152449Y-120300009D01*
X139500027Y-120348963D01*
X141816137Y-120615020D01*
X144000795Y-120760636D01*
X146044497Y-120785317D01*
X147117864Y-120746459D01*
X148767827Y-120600160D01*
X150338346Y-120350287D01*
X151812982Y-120002535D01*
X153175301Y-119562598D01*
X154408863Y-119036171D01*
X155497233Y-118428948D01*
X156423974Y-117746625D01*
X156813092Y-117387597D01*
X157065845Y-117154187D01*
X157320248Y-116972949D01*
X157609794Y-116833362D01*
X157967978Y-116724903D01*
X158428292Y-116637050D01*
X159024232Y-116559281D01*
X159658862Y-116493592D01*
X160469033Y-116438803D01*
X161353384Y-116425915D01*
X162323480Y-116456436D01*
X163390886Y-116531874D01*
X164567169Y-116653738D01*
X165863894Y-116823533D01*
X167292627Y-117042769D01*
X168864934Y-117312952D01*
X170592380Y-117635591D01*
X172486531Y-118012194D01*
X174457987Y-118422823D01*
X175567467Y-118655824D01*
X176515276Y-118848437D01*
X177332184Y-119005413D01*
X178048962Y-119131500D01*
X178696382Y-119231450D01*
X179305214Y-119310012D01*
X179906229Y-119371936D01*
X180530199Y-119421973D01*
X181207894Y-119464872D01*
X181208816Y-119464925D01*
X183538563Y-119502499D01*
X185896301Y-119353468D01*
X188255511Y-119021227D01*
X190589673Y-118509171D01*
X192126984Y-118066986D01*
X192502948Y-117941975D01*
X192956458Y-117781695D01*
X193454832Y-117598830D01*
X193965386Y-117406060D01*
X194455436Y-117216069D01*
X194892298Y-117041538D01*
X195243289Y-116895149D01*
X195475726Y-116789585D01*
X195556924Y-116737529D01*
X195556229Y-116736338D01*
X195454315Y-116747859D01*
X195215569Y-116806599D01*
X194891527Y-116899870D01*
X194889190Y-116900581D01*
X194322555Y-117054983D01*
X193609494Y-117221244D01*
X192800024Y-117389280D01*
X191944161Y-117549008D01*
X191091925Y-117690343D01*
X190644494Y-117756355D01*
X189994562Y-117826439D01*
X189188048Y-117880265D01*
X188265362Y-117917838D01*
X187266919Y-117939161D01*
X186233129Y-117944239D01*
X185204406Y-117933076D01*
X184221161Y-117905677D01*
X183323808Y-117862046D01*
X182552757Y-117802187D01*
X182144883Y-117755451D01*
X180934060Y-117578807D01*
X179805132Y-117384184D01*
X178712156Y-117160852D01*
X177609192Y-116898078D01*
X176450297Y-116585132D01*
X175189530Y-116211283D01*
X174188852Y-115897079D01*
X171939318Y-115202275D01*
X169836190Y-114604820D01*
X167857077Y-114099204D01*
X165979590Y-113679919D01*
X164181339Y-113341455D01*
X163119591Y-113173183D01*
X162527611Y-113104565D01*
X161815071Y-113051510D01*
X161018559Y-113014052D01*
X160174658Y-112992227D01*
X159319957Y-112986070D01*
X158491039Y-112995616D01*
X158491039Y-112995616D01*
G37*
X158491039Y-112995616D02*
X157724492Y-113020901D01*
X157056900Y-113061958D01*
X156524849Y-113118825D01*
X156258950Y-113166587D01*
X155642691Y-113320319D01*
X155194727Y-113461795D01*
X154887343Y-113604272D01*
X154692822Y-113761007D01*
X154583449Y-113945255D01*
X154573823Y-113972576D01*
X154391704Y-114394767D01*
X154105579Y-114906468D01*
X153749304Y-115455534D01*
X153356734Y-115989823D01*
X152961728Y-116457191D01*
X152957784Y-116461455D01*
X152036552Y-117314972D01*
X150950934Y-118066386D01*
X149707443Y-118712918D01*
X148312591Y-119251785D01*
X146772893Y-119680207D01*
X145094861Y-119995405D01*
X144489630Y-120076814D01*
X144010185Y-120120336D01*
X143384876Y-120155243D01*
X142657179Y-120181142D01*
X141870571Y-120197641D01*
X141068529Y-120204348D01*
X140294528Y-120200871D01*
X139592045Y-120186818D01*
X139004557Y-120161795D01*
X138612374Y-120129838D01*
X138214008Y-120088114D01*
X137997086Y-120074064D01*
X137947846Y-120084290D01*
X138052526Y-120115395D01*
X138297361Y-120163982D01*
X138668590Y-120226652D01*
X139152449Y-120300009D01*
X139500027Y-120348963D01*
X141816137Y-120615020D01*
X144000795Y-120760636D01*
X146044497Y-120785317D01*
X147117864Y-120746459D01*
X148767827Y-120600160D01*
X150338346Y-120350287D01*
X151812982Y-120002535D01*
X153175301Y-119562598D01*
X154408863Y-119036171D01*
X155497233Y-118428948D01*
X156423974Y-117746625D01*
X156813092Y-117387597D01*
X157065845Y-117154187D01*
X157320248Y-116972949D01*
X157609794Y-116833362D01*
X157967978Y-116724903D01*
X158428292Y-116637050D01*
X159024232Y-116559281D01*
X159658862Y-116493592D01*
X160469033Y-116438803D01*
X161353384Y-116425915D01*
X162323480Y-116456436D01*
X163390886Y-116531874D01*
X164567169Y-116653738D01*
X165863894Y-116823533D01*
X167292627Y-117042769D01*
X168864934Y-117312952D01*
X170592380Y-117635591D01*
X172486531Y-118012194D01*
X174457987Y-118422823D01*
X175567467Y-118655824D01*
X176515276Y-118848437D01*
X177332184Y-119005413D01*
X178048962Y-119131500D01*
X178696382Y-119231450D01*
X179305214Y-119310012D01*
X179906229Y-119371936D01*
X180530199Y-119421973D01*
X181207894Y-119464872D01*
X181208816Y-119464925D01*
X183538563Y-119502499D01*
X185896301Y-119353468D01*
X188255511Y-119021227D01*
X190589673Y-118509171D01*
X192126984Y-118066986D01*
X192502948Y-117941975D01*
X192956458Y-117781695D01*
X193454832Y-117598830D01*
X193965386Y-117406060D01*
X194455436Y-117216069D01*
X194892298Y-117041538D01*
X195243289Y-116895149D01*
X195475726Y-116789585D01*
X195556924Y-116737529D01*
X195556229Y-116736338D01*
X195454315Y-116747859D01*
X195215569Y-116806599D01*
X194891527Y-116899870D01*
X194889190Y-116900581D01*
X194322555Y-117054983D01*
X193609494Y-117221244D01*
X192800024Y-117389280D01*
X191944161Y-117549008D01*
X191091925Y-117690343D01*
X190644494Y-117756355D01*
X189994562Y-117826439D01*
X189188048Y-117880265D01*
X188265362Y-117917838D01*
X187266919Y-117939161D01*
X186233129Y-117944239D01*
X185204406Y-117933076D01*
X184221161Y-117905677D01*
X183323808Y-117862046D01*
X182552757Y-117802187D01*
X182144883Y-117755451D01*
X180934060Y-117578807D01*
X179805132Y-117384184D01*
X178712156Y-117160852D01*
X177609192Y-116898078D01*
X176450297Y-116585132D01*
X175189530Y-116211283D01*
X174188852Y-115897079D01*
X171939318Y-115202275D01*
X169836190Y-114604820D01*
X167857077Y-114099204D01*
X165979590Y-113679919D01*
X164181339Y-113341455D01*
X163119591Y-113173183D01*
X162527611Y-113104565D01*
X161815071Y-113051510D01*
X161018559Y-113014052D01*
X160174658Y-112992227D01*
X159319957Y-112986070D01*
X158491039Y-112995616D01*
M02*
