M48
;DRILL file {KiCad (5.0.0-rc2-dev-493-gd776eaca8)} date 05/01/18 19:31:40
;FORMAT={-:-/ absolute / inch / decimal}
FMAT,2
INCH,TZ
T1C0.0157
T2C0.0236
T3C0.0300
T4C0.0315
T5C0.0319
T6C0.0394
T7C0.0400
T8C0.0420
T9C0.0512
T10C0.0906
T11C0.0433
T12C0.0472
T13C0.0630
%
G90
G05
M72
T1
X3.0155Y-2.8699
X3.3567Y-2.2199
X3.4071Y-1.975
X3.4248Y-1.675
X3.6719Y-1.6927
X4.25Y-2.1765
X4.2541Y-2.6239
X4.268Y-2.3161
X4.293Y-2.2577
X4.375Y-2.3171
X4.454Y-2.167
X4.4666Y-2.0954
X4.5Y-2.5
X4.5Y-3.45
X4.525Y-2.3171
X4.55Y-2.7
X4.5508Y-1.9172
X4.575Y-2.925
X4.5906Y-2.3456
X4.7465Y-2.475
X4.75Y-2.7
X4.7732Y-2.1219
X4.8335Y-1.5603
X4.85Y-2.925
X4.925Y-3.175
X4.926Y-2.32
X5.025Y-3.3
X5.1245Y-1.7427
X5.15Y-2.925
X5.1565Y-3.0417
X5.375Y-3.125
X5.45Y-2.925
X5.5906Y-3.1423
X5.6145Y-3.1105
X6.2976Y-1.6227
X6.5Y-1.65
T2
X6.99Y-3.227
X7.049Y-3.227
X6.989Y-2.629
X7.0481Y-2.629
X5.7909Y-1.7
X5.85Y-1.7
X6.989Y-2.827
X7.0481Y-2.827
X6.99Y-3.025
X7.049Y-3.025
T3
X5.5395Y-3.5031
X5.6395Y-3.5031
X5.7395Y-3.5031
X5.8395Y-3.5031
T4
X6.638Y-3.022
X6.638Y-3.322
X5.28Y-2.57
X5.58Y-2.57
X3.35Y-2.6016
X3.35Y-2.7
X7.189Y-2.429
X7.189Y-2.529
X7.189Y-2.629
X7.189Y-2.729
X7.189Y-2.829
X7.189Y-2.929
X7.189Y-3.029
X7.189Y-3.129
X7.189Y-3.229
X7.189Y-3.329
X7.489Y-2.429
X7.489Y-2.529
X7.489Y-2.629
X7.489Y-2.729
X7.489Y-2.829
X7.489Y-2.929
X7.489Y-3.029
X7.489Y-3.129
X7.489Y-3.229
X7.489Y-3.329
X5.24Y-1.45
X5.3384Y-1.45
X6.2652Y-3.078
X6.462Y-3.078
X4.9531Y-2.45
X5.15Y-2.45
X5.748Y-3.34
X6.048Y-3.34
X5.756Y-3.02
X5.8544Y-3.02
X3.35Y-2.9
X3.35Y-2.9984
X3.462Y-1.522
X3.762Y-1.522
X4.475Y-1.65
X4.475Y-2.25
X4.575Y-1.65
X4.575Y-2.25
X4.675Y-1.65
X4.675Y-2.25
X4.775Y-1.65
X4.775Y-2.25
X4.875Y-1.65
X4.875Y-2.25
X4.975Y-1.65
X4.975Y-2.25
X5.075Y-1.65
X5.075Y-2.25
X5.175Y-1.65
X5.175Y-2.25
X5.275Y-1.65
X5.275Y-2.25
X5.375Y-1.65
X5.375Y-2.25
X5.475Y-1.65
X5.475Y-2.25
X5.575Y-1.65
X5.575Y-2.25
X4.3531Y-1.325
X4.55Y-1.325
X6.875Y-1.35
X6.9734Y-1.35
X5.775Y-2.175
X5.775Y-2.475
X4.0516Y-1.325
X4.15Y-1.325
X2.4016Y-2.675
X2.5Y-2.675
X4.45Y-2.8
X4.45Y-2.8984
X6.2652Y-2.718
X6.462Y-2.718
X6.54Y-2.478
X6.84Y-2.478
X5.28Y-2.375
X5.58Y-2.375
X4.95Y-2.575
X5.0484Y-2.575
X5.748Y-3.204
X6.048Y-3.204
X5.975Y-1.6516
X5.975Y-1.75
X4.875Y-3.325
X4.875Y-3.625
X3.15Y-2.7079
X3.15Y-2.9
X6.462Y-3.562
X6.5604Y-3.562
X6.075Y-2.2963
X6.075Y-2.375
X5.755Y-2.72
X6.055Y-2.72
X3.462Y-1.392
X3.762Y-1.392
X5.755Y-2.85
X6.055Y-2.85
X4.625Y-3.2
X4.7234Y-3.2
X7.645Y-2.531
X7.645Y-2.6294
X6.2652Y-2.592
X6.462Y-2.592
X5.755Y-2.59
X6.055Y-2.59
X6.162Y-3.34
X6.462Y-3.34
X4.475Y-1.525
X4.5734Y-1.525
X6.52Y-1.944
X6.82Y-1.944
X4.675Y-1.525
X4.7734Y-1.525
X4.925Y-1.425
X5.0234Y-1.425
X6.5536Y-4.228
X6.652Y-4.228
X6.54Y-2.06
X6.54Y-2.36
X6.64Y-2.06
X6.64Y-2.36
X6.74Y-2.06
X6.74Y-2.36
X6.84Y-2.06
X6.84Y-2.36
X4.575Y-2.8
X4.575Y-3.1
X4.675Y-2.8
X4.675Y-3.1
X4.775Y-2.8
X4.775Y-3.1
X4.875Y-2.8
X4.875Y-3.1
X4.975Y-2.8
X4.975Y-3.1
X5.075Y-2.8
X5.075Y-3.1
X5.175Y-2.8
X5.175Y-3.1
X5.275Y-2.8
X5.275Y-3.1
X5.45Y-3.204
X5.6469Y-3.204
X7.038Y-3.564
X7.1364Y-3.564
X7.645Y-3.1286
X7.645Y-3.227
X5.9Y-2.175
X5.9Y-2.475
X6.162Y-2.85
X6.462Y-2.85
X2.4016Y-2.875
X2.5Y-2.875
X6.638Y-2.616
X6.638Y-2.916
X6.9476Y-4.228
X7.046Y-4.228
X4.425Y-3.325
X4.425Y-3.425
X4.425Y-3.525
X4.425Y-3.625
X4.725Y-3.325
X4.725Y-3.425
X4.725Y-3.525
X4.725Y-3.625
X6.416Y-2.1596
X6.416Y-2.258
X6.2652Y-3.208
X6.462Y-3.208
X5.45Y-3.34
X5.6469Y-3.34
T5
X2.8713Y-3.375
X2.8713Y-3.475
X2.95Y-3.375
X2.95Y-3.475
T6
X4.142Y-4.027
X4.142Y-4.2042
X4.3979Y-4.027
X4.3979Y-4.2042
X4.143Y-4.399
X4.143Y-4.5762
X4.3989Y-4.399
X4.3989Y-4.5762
X6.9Y-1.7
X7.0969Y-1.7
X3.742Y-4.027
X3.742Y-4.2042
X3.9979Y-4.027
X3.9979Y-4.2042
X4.567Y-4.027
X4.567Y-4.2042
X4.8229Y-4.027
X4.8229Y-4.2042
T7
X3.575Y-1.698
X3.575Y-1.798
X3.575Y-1.898
X3.575Y-1.998
X3.575Y-2.098
X3.575Y-2.198
X3.575Y-2.298
X3.575Y-2.398
X3.575Y-2.498
X3.575Y-2.598
X3.575Y-2.698
X3.575Y-2.798
X3.575Y-2.898
X3.575Y-2.998
X3.575Y-3.098
X3.575Y-3.198
X3.575Y-3.298
X3.575Y-3.398
X3.575Y-3.498
X3.575Y-3.598
X3.8254Y-1.848
X3.9254Y-1.848
X4.175Y-1.696
X4.175Y-1.798
X4.175Y-1.898
X4.175Y-1.998
X4.175Y-2.098
X4.175Y-2.198
X4.175Y-2.298
X4.175Y-2.398
X4.175Y-2.498
X4.175Y-2.598
X4.175Y-2.698
X4.175Y-2.798
X4.175Y-2.898
X4.175Y-2.998
X4.175Y-3.098
X4.175Y-3.198
X4.175Y-3.298
X4.175Y-3.398
X4.175Y-3.498
X4.175Y-3.598
T8
X7.364Y-2.072
X7.49Y-2.072
X7.616Y-2.072
X5.525Y-2.773
X5.525Y-2.899
X5.525Y-3.025
T9
X6.1569Y-1.375
X6.275Y-1.375
X6.896Y-3.808
X7.0928Y-3.808
X5.5319Y-1.45
X5.65Y-1.45
X7.3452Y-4.1983
X7.3452Y-4.3952
X7.3452Y-4.592
X7.542Y-4.1983
X7.542Y-4.3952
X7.542Y-4.592
X6.5052Y-3.808
X6.702Y-3.808
X5.8069Y-1.975
X5.925Y-1.975
T10
X2.765Y-3.1888
X2.765Y-3.6612
T11
X3.2362Y-1.4472
T12
X7.2448Y-3.6406
X7.5204Y-3.6406
T13
X3.2362Y-2.274
T2
X7.2487Y-3.7272G85X7.2251Y-3.7272
G05
X7.3078Y-3.55G85X7.2842Y-3.55
G05
X7.4653Y-3.55G85X7.4417Y-3.55
G05
X7.5834Y-3.55G85X7.5598Y-3.55
G05
X7.5834Y-3.7665G85X7.5598Y-3.7665
G05
T6
X7.315Y-1.5925G85X7.315Y-1.6713
G05
X7.5394Y-1.5138G85X7.4606Y-1.5138
G05
X7.5394Y-1.75G85X7.4606Y-1.75
G05
T0
M30
